<svg width="20" height="20" viewBox="0 0 20 20" fill="none" xmlns="http://www.w3.org/2000/svg">
<g clip-path="url(#clip0_290_98)">
<path d="M3.46366 0.000226443C4.0493 0.000226443 4.63494 -0.012368 5.22059 0.000226443C6.18406 0.0191181 6.83268 0.655138 6.86416 1.61861C6.90195 2.7962 7.05938 3.94859 7.41202 5.07579C7.61353 5.72441 7.48759 6.29116 7.04678 6.82013C6.52411 7.44985 6.04552 8.11735 5.56693 8.78486C5.49137 8.89191 5.47247 9.10602 5.52915 9.21937C6.72562 11.5179 8.48255 13.2559 10.7747 14.4587C10.8818 14.5153 11.1022 14.4839 11.2093 14.402C11.8956 13.9045 12.5695 13.4007 13.237 12.8781C13.703 12.5128 14.213 12.3869 14.7735 12.5569C15.9637 12.9158 17.179 13.1048 18.4196 13.1362C19.3264 13.1614 19.9687 13.8415 19.9813 14.7609C19.9939 15.9574 19.9939 17.1539 19.9813 18.3566C19.9687 19.3453 19.2823 20.0128 18.281 20.0002C13.2118 19.9184 8.86668 18.0985 5.28986 14.509C2.4687 11.6627 0.774742 8.21811 0.1891 4.24456C0.0631551 3.39443 0.0253718 2.53171 0.000182844 1.67529C-0.0250061 0.705516 0.661392 0.0254154 1.63117 0.00652367C2.242 -0.00607079 2.85283 0.00652367 3.46996 0.00652367L3.46366 0.000226443Z" fill="#F10806"/>
</g>
<defs>
<clipPath id="clip0_290_98">
<rect width="20" height="20" fill="white"/>
</clipPath>
</defs>
</svg>
