<svg width="22" height="32" viewBox="0 0 22 32" fill="none" xmlns="http://www.w3.org/2000/svg">
<g clip-path="url(#clip0_290_96)">
<path d="M21.2042 10.5624C21.2142 12.4006 20.7571 14.1196 19.8728 15.7193C17.0608 20.8166 14.2488 25.9139 11.417 30.9914C11.258 31.2795 10.8904 31.6869 10.6619 31.667C10.3638 31.6372 10.016 31.2795 9.84708 30.9814C7.02518 25.9139 4.1834 20.8564 1.43106 15.7591C-0.54626 12.0926 -0.476706 8.38635 1.76889 4.87885C3.94493 1.45083 7.20403 -0.158842 11.258 0.0100744C16.7627 0.238609 21.1446 4.91859 21.1943 10.5624H21.2042ZM10.642 5.29617C7.72072 5.29617 5.34595 7.65107 5.33601 10.5624C5.33601 13.4638 7.71078 15.8584 10.6221 15.8584C13.5235 15.8584 15.9181 13.4837 15.9281 10.5823C15.938 7.68087 13.5632 5.30611 10.642 5.29617Z" fill="#F10806"/>
</g>
<defs>
<clipPath id="clip0_290_96">
<rect width="21.204" height="31.6669" fill="white"/>
</clipPath>
</defs>
</svg>
