<svg width="25" height="24" viewBox="0 0 25 24" fill="none" xmlns="http://www.w3.org/2000/svg">
<path d="M12.8979 22C18.4208 22 22.8979 17.5228 22.8979 12C22.8979 6.47715 18.4208 2 12.8979 2C7.3751 2 2.89795 6.47715 2.89795 12C2.89795 17.5228 7.3751 22 12.8979 22Z" fill="white"/>
<path d="M10.2285 16.0137C10.2403 16.0241 10.2522 16.0359 10.264 16.0463C10.3751 16.1248 10.4551 16.2374 10.5603 16.3219C10.8892 16.5856 11.2596 16.7293 11.6833 16.7559C12.6877 16.8181 13.5633 16.0626 13.6774 15.0685C13.6833 15.0196 13.6803 14.9707 13.6803 14.9233C13.6803 11.9322 13.6803 8.94111 13.6803 5.94852C13.6803 5.8142 13.7475 5.74704 13.8818 5.74704C14.3366 5.74704 14.7914 5.74704 15.2462 5.74704C15.2892 5.74704 15.3337 5.73963 15.3722 5.7663C15.3751 5.76926 15.3766 5.77074 15.3796 5.77222C15.4018 5.79445 15.4077 5.82408 15.4137 5.85222C15.5885 6.65815 16.0122 7.30111 16.6774 7.78704C16.7188 7.81667 16.7544 7.85519 16.7929 7.88778C16.8225 7.91296 16.8507 7.93667 16.8803 7.96185C16.987 8.02259 17.064 8.12037 17.1574 8.19889C17.5248 8.50556 17.9411 8.71741 18.4048 8.83593C18.4462 8.8463 18.4922 8.8463 18.5218 8.88482C18.5233 8.88778 18.5262 8.88926 18.5292 8.89074C18.5559 8.91889 18.5514 8.95593 18.5514 8.99C18.5514 9.51741 18.5514 10.0448 18.5514 10.5722C18.5514 10.6922 18.5351 10.6996 18.4137 10.6996C18.027 10.6996 17.6477 10.6478 17.2729 10.5619C16.627 10.4137 16.0314 10.1515 15.4788 9.78852C15.4507 9.76926 15.4196 9.72926 15.3885 9.74259C15.3499 9.76037 15.3692 9.81074 15.3692 9.8463C15.3692 11.3307 15.3751 12.8152 15.3662 14.3011C15.3603 15.3396 15.0299 16.267 14.3499 17.0581C13.6285 17.8981 12.7114 18.3856 11.6107 18.5204C10.7618 18.6241 9.95735 18.47 9.19291 18.0937C9.06995 18.033 8.95143 17.9619 8.84032 17.8789C8.80624 17.8478 8.77069 17.8167 8.73513 17.7856C8.47143 17.5678 8.28921 17.2863 8.11735 16.9989C7.85365 16.5544 7.68328 16.0744 7.60032 15.5648C7.55291 15.273 7.52772 14.9796 7.54402 14.6848C7.59587 13.7337 7.91587 12.8863 8.52921 12.153C9.04328 11.5381 9.68624 11.1085 10.4433 10.8493C10.7588 10.7411 11.0848 10.6744 11.4196 10.6507C11.4818 10.6463 11.5425 10.6315 11.6048 10.6359C11.6344 10.6374 11.664 10.6359 11.6907 10.6552C11.6937 10.6581 11.6966 10.6596 11.6996 10.6611C11.7174 10.6907 11.7129 10.7248 11.7129 10.7559C11.7129 11.2907 11.7129 11.827 11.7129 12.3619C11.7129 12.3811 11.7129 12.4004 11.7129 12.4181C11.7099 12.4715 11.6833 12.4893 11.6329 12.4759C11.4862 12.4344 11.3366 12.4152 11.1855 12.4078C10.9514 12.3959 10.7203 12.4285 10.4996 12.51C9.76328 12.7811 9.31735 13.3085 9.22402 14.0848C9.13217 14.8493 9.43439 15.4611 10.0699 15.9026C10.1233 15.9396 10.1781 15.9737 10.2285 16.0152V16.0137Z" fill="black"/>
<path opacity="0.3" d="M8.84326 17.8788C8.87141 17.8714 8.88771 17.8936 8.90697 17.9054C9.38548 18.1973 9.90104 18.3884 10.4551 18.4773C10.7336 18.5217 11.0136 18.541 11.2951 18.5262C12.2359 18.4773 13.0788 18.1647 13.8077 17.5617C14.5084 16.9825 14.9751 16.2506 15.2077 15.3721C15.2818 15.0951 15.3218 14.8121 15.3366 14.5247C15.3455 14.3603 15.344 14.1943 15.344 14.0299C15.344 12.6151 15.344 11.2003 15.344 9.78544V9.68914C15.381 9.67877 15.3973 9.70692 15.4181 9.72025C15.9218 10.0654 16.467 10.3203 17.0566 10.4832C17.3796 10.5721 17.7084 10.6314 18.0433 10.661C18.184 10.6728 18.3247 10.6714 18.464 10.6817C18.5247 10.6862 18.5262 10.6832 18.5277 10.6195C18.5277 10.5514 18.5277 10.4847 18.5277 10.4166C18.5277 9.93803 18.5277 9.45951 18.5277 8.97951C18.5277 8.94988 18.5292 8.92025 18.5307 8.89062C18.6566 8.90544 18.781 8.93211 18.9084 8.941C18.987 8.94692 19.0655 8.95433 19.144 8.95137C19.1825 8.95137 19.1988 8.96322 19.1944 9.00322C19.1929 9.01951 19.1944 9.03581 19.1944 9.05211V11.1291C19.1944 11.1425 19.1944 11.1558 19.1944 11.1691C19.1929 11.2299 19.1929 11.2314 19.1292 11.2299C18.9129 11.2299 18.6966 11.2151 18.4818 11.1869C18.0433 11.1291 17.6166 11.0225 17.2047 10.861C16.8107 10.7069 16.4388 10.5114 16.0892 10.2714C16.067 10.2566 16.0447 10.2432 16.0122 10.221V10.3188C16.0122 11.8314 16.0122 13.3425 16.0122 14.8551C16.0122 15.661 15.8033 16.4106 15.3722 17.0936C14.8522 17.9188 14.1322 18.498 13.2166 18.8314C12.661 19.0328 12.0847 19.1114 11.4936 19.0669C10.4966 18.9928 9.63437 18.6121 8.89956 17.9366C8.8803 17.9188 8.86252 17.8966 8.84474 17.8773L8.84326 17.8788Z" fill="black"/>
<path opacity="0.1" d="M15.3738 5.7647C15.3441 5.7647 15.3145 5.76915 15.2849 5.76915C14.7975 5.76915 14.3101 5.76915 13.8241 5.76915C13.7491 5.76915 13.7116 5.80569 13.7116 5.87878C13.7116 8.85507 13.7116 11.8299 13.7116 14.8062C13.7116 15.0136 13.6967 15.2166 13.6316 15.4136C13.4034 16.1099 12.9353 16.5691 12.2212 16.7321C11.4553 16.9069 10.8049 16.6729 10.2864 16.0788C10.2775 16.0684 10.2716 16.0566 10.2656 16.0447C10.4138 16.104 10.5619 16.1632 10.719 16.1943C11.2182 16.2936 11.6893 16.2166 12.1219 15.9499C12.6227 15.6417 12.9175 15.1899 13.0212 14.6136C13.0404 14.504 13.0434 14.3929 13.0434 14.2817C13.0434 11.301 13.0434 8.31878 13.0434 5.33804C13.0434 5.19878 13.0241 5.21656 13.1619 5.21656C13.8493 5.21656 14.5367 5.21656 15.2241 5.21656C15.2404 5.21656 15.2567 5.21656 15.273 5.21656C15.3427 5.21656 15.3441 5.21656 15.3441 5.28915C15.3441 5.44915 15.3412 5.60767 15.3723 5.7647H15.3738Z" fill="black"/>
<path opacity="0.1" d="M11.6937 10.6548C11.2745 10.6681 10.8626 10.7348 10.4641 10.8681C9.88781 11.0592 9.37522 11.36 8.92781 11.7718C8.34114 12.3126 7.94114 12.9674 7.72188 13.7333C7.64337 14.0059 7.59892 14.2859 7.57818 14.5689C7.56633 14.7392 7.56188 14.9096 7.57225 15.0785C7.59744 15.5511 7.69522 16.0074 7.87448 16.4459C8.07448 16.9363 8.35596 17.3748 8.72188 17.7585C8.72929 17.7659 8.73374 17.7763 8.73966 17.7852C8.6567 17.7496 8.59003 17.6889 8.5204 17.6341C7.83892 17.0933 7.35744 16.4118 7.09374 15.5807C7.00188 15.2918 6.94411 14.9955 6.91596 14.6933C6.89522 14.4741 6.89374 14.2548 6.90707 14.037C6.93966 13.5333 7.05966 13.0504 7.26707 12.5896C7.48485 12.1081 7.78114 11.6815 8.15744 11.3126C8.59596 10.883 9.10411 10.5615 9.68336 10.3526C10.0463 10.2222 10.4197 10.1422 10.8048 10.1141C11.0834 10.0933 11.3604 10.0992 11.6389 10.1333C11.676 10.1378 11.6982 10.1452 11.6982 10.1896C11.6952 10.3437 11.6952 10.4978 11.6937 10.6518V10.6548Z" fill="black"/>
<path opacity="0.3" d="M10.2286 16.0135C10.0597 15.9365 9.91308 15.8269 9.77975 15.6995C9.44641 15.378 9.24789 14.9869 9.19604 14.5261C9.08789 13.5602 9.69678 12.7276 10.5427 12.4698C10.9042 12.3602 11.2657 12.3557 11.6286 12.4535C11.6494 12.4595 11.6686 12.4683 11.6909 12.4624C11.7027 12.4328 11.6968 12.4032 11.6968 12.3735C11.6968 11.8328 11.6968 11.292 11.6968 10.7513C11.6968 10.7217 11.6997 10.692 11.7012 10.6624C11.9101 10.6476 12.1175 10.6669 12.3234 10.6906C12.356 10.6935 12.3649 10.7098 12.3634 10.738C12.3634 10.7543 12.3634 10.7706 12.3634 10.7869C12.3634 11.5039 12.3634 12.2209 12.3634 12.9365C12.3634 12.9632 12.3709 12.9898 12.3531 13.0195C12.2583 13.0017 12.1664 12.9735 12.0701 12.9602C11.516 12.8832 11.0168 13.012 10.5783 13.3572C10.1931 13.6609 9.95604 14.0595 9.87604 14.5424C9.7916 15.055 9.89826 15.5306 10.1931 15.9617C10.2049 15.9795 10.2153 15.9972 10.2272 16.0165L10.2286 16.0135Z" fill="black"/>
<path opacity="0.3" d="M16.7957 7.88746C16.5868 7.76449 16.4046 7.60894 16.2372 7.43561C15.7868 6.9719 15.5023 6.42227 15.3809 5.78672C15.3809 5.78079 15.3809 5.77635 15.3809 5.77042C15.5749 5.76005 15.7705 5.77042 15.9646 5.76598C15.9986 5.76598 16.0149 5.77931 16.0105 5.81338C16.0105 5.82672 16.0105 5.84005 16.0105 5.85338C16.0001 6.39857 16.1616 6.89635 16.4283 7.36449C16.5231 7.5319 16.6372 7.68598 16.7601 7.83412C16.7735 7.85042 16.7927 7.86375 16.7957 7.88746Z" fill="black"/>
<path opacity="0.1" d="M18.5233 8.88452C17.9692 8.766 17.4818 8.51563 17.0581 8.13933C16.9959 8.08451 16.9322 8.0297 16.8818 7.96155C16.9026 7.96007 16.9174 7.97192 16.9337 7.98081C17.27 8.1734 17.6285 8.29933 18.0107 8.36155C18.1589 8.38674 18.31 8.40155 18.4611 8.40007C18.5248 8.40007 18.5263 8.40155 18.5263 8.46229C18.5263 8.60303 18.5248 8.74229 18.5233 8.88303V8.88452Z" fill="black"/>
</svg>
