<svg width="25" height="24" viewBox="0 0 25 24" fill="none" xmlns="http://www.w3.org/2000/svg">
<path d="M15.8979 12C15.8979 12.5933 15.722 13.1734 15.3924 13.6667C15.0627 14.1601 14.5942 14.5446 14.046 14.7716C13.4978 14.9987 12.8946 15.0581 12.3127 14.9424C11.7307 14.8266 11.1962 14.5409 10.7766 14.1213C10.3571 13.7018 10.0713 13.1672 9.95559 12.5853C9.83984 12.0033 9.89925 11.4001 10.1263 10.8519C10.3534 10.3038 10.7379 9.83524 11.2312 9.50559C11.7246 9.17595 12.3046 9 12.8979 9C13.6928 9.00247 14.4545 9.31934 15.0165 9.88141C15.5786 10.4435 15.8955 11.2051 15.8979 12V12ZM22.2729 7.875V16.125C22.2729 17.5174 21.7198 18.8527 20.7353 19.8373C19.7507 20.8219 18.4153 21.375 17.0229 21.375H8.77295C7.38056 21.375 6.0452 20.8219 5.06064 19.8373C4.07607 18.8527 3.52295 17.5174 3.52295 16.125V7.875C3.52295 6.48261 4.07607 5.14726 5.06064 4.16269C6.0452 3.17812 7.38056 2.625 8.77295 2.625H17.0229C18.4153 2.625 19.7507 3.17812 20.7353 4.16269C21.7198 5.14726 22.2729 6.48261 22.2729 7.875V7.875ZM17.3979 12C17.3979 11.11 17.134 10.24 16.6396 9.49993C16.1451 8.75991 15.4423 8.18314 14.62 7.84254C13.7978 7.50195 12.893 7.41283 12.02 7.58647C11.1471 7.7601 10.3453 8.18868 9.71597 8.81802C9.08663 9.44736 8.65805 10.2492 8.48442 11.1221C8.31078 11.995 8.3999 12.8998 8.74049 13.7221C9.08109 14.5443 9.65786 15.2471 10.3979 15.7416C11.1379 16.2361 12.0079 16.5 12.8979 16.5C14.0914 16.5 15.236 16.0259 16.0799 15.182C16.9238 14.3381 17.3979 13.1935 17.3979 12ZM18.8979 7.125C18.8979 6.9025 18.832 6.68499 18.7084 6.49998C18.5847 6.31498 18.409 6.17078 18.2035 6.08564C17.9979 6.00049 17.7717 5.97821 17.5535 6.02162C17.3352 6.06502 17.1348 6.17217 16.9775 6.3295C16.8201 6.48684 16.713 6.68729 16.6696 6.90552C16.6262 7.12375 16.6484 7.34995 16.7336 7.55552C16.8187 7.76109 16.9629 7.93679 17.1479 8.0604C17.3329 8.18402 17.5504 8.25 17.7729 8.25C18.0713 8.25 18.3575 8.13147 18.5684 7.9205C18.7794 7.70952 18.8979 7.42337 18.8979 7.125Z" fill="white"/>
</svg>
