<svg width="117" height="20" viewBox="0 0 117 20" fill="none" xmlns="http://www.w3.org/2000/svg">
<g clip-path="url(#clip0_562_1360)">
<path d="M10.4 0L13.6127 6.58359L20.8 7.63878L15.5992 12.7642L16.827 20L10.4 16.5836L3.97303 20L5.1992 12.7642L0 7.63878L7.18572 6.58359L10.4 0Z" fill="#F10806"/>
<path d="M34.4 0L37.6127 6.58359L44.8 7.63878L39.5992 12.7642L40.827 20L34.4 16.5836L27.973 20L29.1992 12.7642L24 7.63878L31.1857 6.58359L34.4 0Z" fill="#F10806"/>
<path d="M58.4 0L61.6127 6.58359L68.8 7.63878L63.5992 12.7642L64.827 20L58.4 16.5836L51.973 20L53.1992 12.7642L48 7.63878L55.1857 6.58359L58.4 0Z" fill="#F10806"/>
<path d="M82.4 0L85.6127 6.58359L92.8 7.63878L87.5992 12.7642L88.827 20L82.4 16.5836L75.973 20L77.1992 12.7642L72 7.63878L79.1857 6.58359L82.4 0Z" fill="#F10806"/>
<path d="M106.4 0L109.613 6.58359L116.8 7.63878L111.599 12.7642L112.827 20L106.4 16.5836L99.973 20L101.199 12.7642L96 7.63878L103.186 6.58359L106.4 0Z" fill="#F10806"/>
</g>
<defs>
<clipPath id="clip0_562_1360">
<rect width="116.8" height="20" fill="white"/>
</clipPath>
</defs>
</svg>
