<svg width="18" height="21" viewBox="0 0 18 21" fill="none" xmlns="http://www.w3.org/2000/svg">
<g clip-path="url(#clip0_344_97)">
<path d="M18 5.25C18 4.41 17.68 3.6225 17.12 3.024C16.55 2.4255 15.8 2.1 15 2.1H14V1.05C14 0.4725 13.55 0 13 0C12.45 0 12 0.4725 12 1.05V2.1H6V1.05C6 0.4725 5.55 0 5 0C4.45 0 4 0.4725 4 1.05V2.1H3C2.19 2.1 1.44 2.4255 0.87 3.024C0.31 3.6225 0 4.41 0 5.25V7.35C0 7.4445 0.01 7.5285 0.03 7.6125C0.01 7.6965 0 7.7805 0 7.875V17.85C0 18.69 0.31 19.488 0.87 20.076C1.44 20.6745 2.19 21 3 21H15C15.8 21 16.55 20.6745 17.12 20.076C17.68 19.488 18 18.69 18 17.85V7.875C18 7.7805 17.99 7.6965 17.96 7.6125C17.99 7.5285 18 7.4445 18 7.35V5.25ZM16 17.85C16 18.1335 15.89 18.396 15.7 18.5955C15.51 18.795 15.26 18.9 15 18.9H3C2.73 18.9 2.48 18.7845 2.29 18.5955C2.1 18.396 2 18.123 2 17.85V8.4H16V17.85Z" fill="white"/>
</g>
<defs>
<clipPath id="clip0_344_97">
<rect width="18" height="21" fill="white"/>
</clipPath>
</defs>
</svg>
