<svg width="23" height="21" viewBox="0 0 23 21" fill="none" xmlns="http://www.w3.org/2000/svg">
<g clip-path="url(#clip0_344_91)">
<path d="M21.9601 14.1201L19.1901 17.7701L16.4201 14.1201C16.1501 13.7701 16.2201 13.2601 16.5701 12.9901C16.9201 12.7201 17.4301 12.7901 17.7001 13.1401L18.3801 14.0401V11.1301C18.3801 6.57014 14.7901 2.73014 10.2301 2.60014C5.42014 2.48014 1.47014 6.42014 1.61014 11.2401C1.74014 15.8001 5.57014 19.3901 10.1401 19.3901H13.4601C13.9001 19.3901 14.2701 19.7501 14.2701 20.2001C14.2701 20.6501 13.9101 21.0101 13.4601 21.0101H10.1801C4.65014 21.0001 -0.0298566 16.4701 0.000143437 10.9401C0.0301434 5.47014 4.47014 1.03014 9.94014 1.00014C15.4701 0.970143 19.9901 5.65014 19.9901 11.1801V14.0501L20.6701 13.1501C20.9401 12.8001 21.4401 12.7301 21.8001 13.0001C22.1501 13.2701 22.2201 13.7701 21.9501 14.1301L21.9601 14.1201Z" fill="white"/>
<path d="M9.72988 11.2599V7.23994C9.72988 6.79994 9.36988 6.43994 8.92988 6.43994C8.48988 6.43994 8.12988 6.79994 8.12988 7.23994V12.8499H13.7399C14.1799 12.8499 14.5399 12.4899 14.5399 12.0499C14.5399 11.6099 14.1799 11.2499 13.7399 11.2499H9.71988L9.72988 11.2599Z" fill="white"/>
</g>
<defs>
<clipPath id="clip0_344_91">
<rect width="23" height="21" fill="white"/>
</clipPath>
</defs>
</svg>
