<svg width="250" height="49" viewBox="0 0 250 49" fill="none" xmlns="http://www.w3.org/2000/svg">
<circle cx="24.4845" cy="24.4845" r="24.4845" fill="url(#paint0_linear_28_33)"/>
<mask id="mask0_28_33" style="mask-type:alpha" maskUnits="userSpaceOnUse" x="11" y="11" width="26" height="26">
<rect x="11.1685" y="11.1684" width="25.7732" height="25.7732" fill="#D9D9D9"/>
</mask>
<g mask="url(#mask0_28_33)">
<path d="M19.7592 20.8587C18.8643 20.8587 18.1037 20.6217 17.4772 20.1479C16.8508 19.674 16.5376 19.0986 16.5376 18.4216C16.5376 17.7446 16.8508 17.1692 17.4772 16.6953C18.1037 16.2215 18.8643 15.9845 19.7592 15.9845C20.4394 15.9845 21.0569 16.1368 21.6117 16.4415C22.1665 16.7461 22.5692 17.1354 22.8198 17.6092H31.572V19.234H30.4981V20.8587H28.3503V19.234H22.8198C22.5692 19.7078 22.1665 20.0971 21.6117 20.4017C21.0569 20.7064 20.4394 20.8587 19.7592 20.8587ZM19.7592 19.234C20.0635 19.234 20.3186 19.1561 20.5244 19.0004C20.7302 18.8447 20.8331 18.6518 20.8331 18.4216C20.8331 18.1914 20.7302 17.9985 20.5244 17.8428C20.3186 17.6871 20.0635 17.6092 19.7592 17.6092C19.455 17.6092 19.1999 17.6871 18.9941 17.8428C18.7883 17.9985 18.6854 18.1914 18.6854 18.4216C18.6854 18.6518 18.7883 18.8447 18.9941 19.0004C19.1999 19.1561 19.455 19.234 19.7592 19.234ZM20.8331 29.3884C21.1374 29.3884 21.3924 29.3106 21.5983 29.1549C21.8041 28.9992 21.907 28.8062 21.907 28.5761C21.907 28.3459 21.8041 28.153 21.5983 27.9973C21.3924 27.8416 21.1374 27.7637 20.8331 27.7637C20.5289 27.7637 20.2738 27.8416 20.068 27.9973C19.8622 28.153 19.7592 28.3459 19.7592 28.5761C19.7592 28.8062 19.8622 28.9992 20.068 29.1549C20.2738 29.3106 20.5289 29.3884 20.8331 29.3884ZM27.2764 29.3884C27.5807 29.3884 27.8357 29.3106 28.0416 29.1549C28.2474 28.9992 28.3503 28.8062 28.3503 28.5761C28.3503 28.3459 28.2474 28.153 28.0416 27.9973C27.8357 27.8416 27.5807 27.7637 27.2764 27.7637C26.9722 27.7637 26.7171 27.8416 26.5113 27.9973C26.3055 28.153 26.2025 28.3459 26.2025 28.5761C26.2025 28.8062 26.3055 28.9992 26.5113 29.1549C26.7171 29.3106 26.9722 29.3884 27.2764 29.3884ZM16.5376 27.0326L18.3095 23.1333C18.399 22.9437 18.5467 22.788 18.7525 22.6662C18.9583 22.5443 19.1865 22.4834 19.4371 22.4834H28.6725C28.9231 22.4834 29.1513 22.5443 29.3571 22.6662C29.5629 22.788 29.7106 22.9437 29.8001 23.1333L31.572 27.0326V32.3942C31.572 32.5837 31.4914 32.7394 31.3303 32.8613C31.1693 32.9831 30.9634 33.044 30.7129 33.044H30.2833C30.0327 33.044 29.8269 32.9831 29.6658 32.8613C29.5047 32.7394 29.4242 32.5837 29.4242 32.3942V31.4193H18.6854V32.3942C18.6854 32.5837 18.6048 32.7394 18.4437 32.8613C18.2827 32.9831 18.0768 33.044 17.8263 33.044H17.3967C17.1461 33.044 16.9403 32.9831 16.7792 32.8613C16.6181 32.7394 16.5376 32.5837 16.5376 32.3942V27.0326ZM19.3834 25.7328H28.7262L27.9745 24.1081H20.1351L19.3834 25.7328ZM18.6854 29.7946H29.4242V27.3575H18.6854V29.7946Z" fill="white"/>
</g>
<circle cx="90.6359" cy="24.4845" r="24.4845" fill="url(#paint1_linear_28_33)"/>
<mask id="mask1_28_33" style="mask-type:alpha" maskUnits="userSpaceOnUse" x="77" y="11" width="27" height="26">
<rect x="77.3196" y="11.1684" width="25.7732" height="25.7732" fill="#D9D9D9"/>
</mask>
<g mask="url(#mask1_28_33)">
<path d="M89.1322 33.044V30.607H81.615V28.9823H98.7971V30.607H91.2799V33.044H89.1322ZM86.9844 24.5143C87.2887 24.5143 87.5437 24.4364 87.7495 24.2807C87.9554 24.125 88.0583 23.9321 88.0583 23.7019C88.0583 23.4718 87.9554 23.2788 87.7495 23.1231C87.5437 22.9674 87.2887 22.8896 86.9844 22.8896C86.6801 22.8896 86.4251 22.9674 86.2193 23.1231C86.0134 23.2788 85.9105 23.4718 85.9105 23.7019C85.9105 23.9321 86.0134 24.125 86.2193 24.2807C86.4251 24.4364 86.6801 24.5143 86.9844 24.5143ZM93.4277 24.5143C93.732 24.5143 93.987 24.4364 94.1928 24.2807C94.3987 24.125 94.5016 23.9321 94.5016 23.7019C94.5016 23.4718 94.3987 23.2788 94.1928 23.1231C93.987 22.9674 93.732 22.8896 93.4277 22.8896C93.1234 22.8896 92.8684 22.9674 92.6626 23.1231C92.4567 23.2788 92.3538 23.4718 92.3538 23.7019C92.3538 23.9321 92.4567 24.125 92.6626 24.2807C92.8684 24.4364 93.1234 24.5143 93.4277 24.5143ZM82.6889 22.1585L84.4608 18.2591C84.5503 18.0696 84.6979 17.9139 84.9038 17.792C85.1096 17.6702 85.3378 17.6093 85.5884 17.6093H94.8238C95.0743 17.6093 95.3025 17.6702 95.5084 17.792C95.7142 17.9139 95.8618 18.0696 95.9513 18.2591L97.7232 22.1585V27.52C97.7232 27.7096 97.6427 27.8653 97.4816 27.9871C97.3205 28.109 97.1147 28.1699 96.8641 28.1699H96.4346C96.184 28.1699 95.9782 28.109 95.8171 27.9871C95.656 27.8653 95.5755 27.7096 95.5755 27.52V26.5452H84.8366V27.52C84.8366 27.7096 84.7561 27.8653 84.595 27.9871C84.4339 28.109 84.2281 28.1699 83.9775 28.1699H83.548C83.2974 28.1699 83.0916 28.109 82.9305 27.9871C82.7694 27.8653 82.6889 27.7096 82.6889 27.52V22.1585ZM85.5347 20.8587H94.8774L94.1257 19.234H86.2864L85.5347 20.8587ZM84.8366 24.9205H95.5755V22.4834H84.8366V24.9205Z" fill="white"/>
</g>
<circle cx="156.787" cy="24.4845" r="24.4845" fill="url(#paint2_linear_28_33)"/>
<mask id="mask2_28_33" style="mask-type:alpha" maskUnits="userSpaceOnUse" x="143" y="11" width="27" height="26">
<rect x="143.471" y="11.1684" width="25.7732" height="25.7732" fill="#D9D9D9"/>
</mask>
<g mask="url(#mask2_28_33)">
<path d="M150.451 28.1699C150.899 28.1699 151.279 28.0514 151.592 27.8145C151.905 27.5775 152.062 27.2898 152.062 26.9514C152.062 26.6129 151.905 26.3252 151.592 26.0882C151.279 25.8513 150.899 25.7328 150.451 25.7328C150.004 25.7328 149.623 25.8513 149.31 26.0882C148.997 26.3252 148.84 26.6129 148.84 26.9514C148.84 27.2898 148.997 27.5775 149.31 27.8145C149.623 28.0514 150.004 28.1699 150.451 28.1699ZM160.116 28.1699C160.474 28.1699 160.796 28.0887 161.083 27.9262C161.369 27.7637 161.557 27.5539 161.646 27.2966C161.288 27.2424 160.948 27.1511 160.626 27.0224C160.304 26.8938 160.009 26.728 159.74 26.5249L159.069 26.0171C158.89 26.1255 158.751 26.2609 158.653 26.4233C158.554 26.5858 158.505 26.7618 158.505 26.9514C158.505 27.2898 158.662 27.5775 158.975 27.8145C159.288 28.0514 159.669 28.1699 160.116 28.1699ZM148.84 30.607V31.4193C148.84 31.6495 148.737 31.8424 148.532 31.9981C148.326 32.1538 148.071 32.2317 147.766 32.2317H146.693C146.388 32.2317 146.133 32.1538 145.927 31.9981C145.722 31.8424 145.619 31.6495 145.619 31.4193V24.9205L147.874 20.0463C147.981 19.8026 148.174 19.6063 148.451 19.4574C148.728 19.3084 149.037 19.234 149.377 19.234H153.136V20.3509C153.136 20.4322 153.14 20.5168 153.149 20.6048C153.158 20.6928 153.172 20.7774 153.19 20.8587H149.753L148.626 23.2957H155.472L157.619 24.9205H147.766V28.9822H162.801V27.3372C163.195 27.3101 163.575 27.2357 163.942 27.1138C164.309 26.992 164.644 26.8227 164.949 26.6061V31.4193C164.949 31.6495 164.846 31.8424 164.64 31.9981C164.434 32.1538 164.179 32.2317 163.875 32.2317H162.801C162.497 32.2317 162.241 32.1538 162.036 31.9981C161.83 31.8424 161.727 31.6495 161.727 31.4193V30.607H148.84ZM159.579 20.0463C159.883 20.0463 160.138 19.9685 160.344 19.8128C160.55 19.6571 160.653 19.4641 160.653 19.234C160.653 19.0038 160.55 18.8109 160.344 18.6552C160.138 18.4995 159.883 18.4216 159.579 18.4216C159.275 18.4216 159.02 18.4995 158.814 18.6552C158.608 18.8109 158.505 19.0038 158.505 19.234C158.505 19.4641 158.608 19.6571 158.814 19.8128C159.02 19.9685 159.275 20.0463 159.579 20.0463ZM161.244 25.3673L155.767 21.2242C155.624 21.1159 155.507 20.9839 155.418 20.8282C155.328 20.6725 155.284 20.5134 155.284 20.3509V17.2031C155.284 16.8646 155.44 16.5769 155.753 16.3399C156.067 16.103 156.447 15.9845 156.894 15.9845H161.056C161.27 15.9845 161.481 16.0184 161.687 16.0861C161.892 16.1538 162.067 16.2418 162.21 16.3501L167.687 20.4931C167.991 20.7233 168.143 21.011 168.143 21.3562C168.143 21.7015 167.991 21.9892 167.687 22.2194L163.526 25.3673C163.221 25.5974 162.841 25.7125 162.385 25.7125C161.928 25.7125 161.548 25.5974 161.244 25.3673ZM162.398 23.9456L165.808 21.3664L160.841 17.6092H157.431V20.1885L162.398 23.9456Z" fill="white"/>
</g>
<circle cx="225.516" cy="24.4845" r="24.4845" fill="url(#paint3_linear_28_33)"/>
<mask id="mask3_28_33" style="mask-type:alpha" maskUnits="userSpaceOnUse" x="212" y="11" width="26" height="26">
<rect x="212.199" y="11.1684" width="25.7732" height="25.7732" fill="#D9D9D9"/>
</mask>
<g mask="url(#mask3_28_33)">
<path d="M218.643 27.3575V28.1699C218.643 28.4001 218.54 28.593 218.334 28.7487C218.128 28.9044 217.873 28.9823 217.569 28.9823H216.495C216.191 28.9823 215.935 28.9044 215.73 28.7487C215.524 28.593 215.421 28.4001 215.421 28.1699V21.671L217.676 16.7969C217.783 16.5532 217.976 16.3569 218.253 16.2079C218.531 16.059 218.839 15.9845 219.179 15.9845H230.992C231.332 15.9845 231.641 16.059 231.918 16.2079C232.196 16.3569 232.388 16.5532 232.496 16.7969L234.751 21.671V28.1699C234.751 28.4001 234.648 28.593 234.442 28.7487C234.236 28.9044 233.981 28.9823 233.677 28.9823H232.603C232.299 28.9823 232.044 28.9044 231.838 28.7487C231.632 28.593 231.529 28.4001 231.529 28.1699V27.3575H218.643ZM218.428 20.0463H231.744L230.616 17.6092H219.555L218.428 20.0463ZM220.253 24.9205C220.701 24.9205 221.081 24.802 221.394 24.5651C221.708 24.3281 221.864 24.0404 221.864 23.7019C221.864 23.3634 221.708 23.0757 221.394 22.8388C221.081 22.6019 220.701 22.4834 220.253 22.4834C219.806 22.4834 219.426 22.6019 219.112 22.8388C218.799 23.0757 218.643 23.3634 218.643 23.7019C218.643 24.0404 218.799 24.3281 219.112 24.5651C219.426 24.802 219.806 24.9205 220.253 24.9205ZM229.918 24.9205C230.366 24.9205 230.746 24.802 231.059 24.5651C231.373 24.3281 231.529 24.0404 231.529 23.7019C231.529 23.3634 231.373 23.0757 231.059 22.8388C230.746 22.6019 230.366 22.4834 229.918 22.4834C229.471 22.4834 229.091 22.6019 228.777 22.8388C228.464 23.0757 228.307 23.3634 228.307 23.7019C228.307 24.0404 228.464 24.3281 228.777 24.5651C229.091 24.802 229.471 24.9205 229.918 24.9205ZM226.16 33.8564L219.716 31.4193H224.012V29.7946L230.455 32.2317H226.16V33.8564ZM217.569 25.7328H232.603V21.671H217.569V25.7328Z" fill="white"/>
</g>
<defs>
<linearGradient id="paint0_linear_28_33" x1="15.8935" y1="-6.68383e-07" x2="48.9691" y2="54.9828" gradientUnits="userSpaceOnUse">
<stop stop-color="#F10806"/>
<stop offset="1" stop-color="#F10806"/>
</linearGradient>
<linearGradient id="paint1_linear_28_33" x1="82.0448" y1="-6.68383e-07" x2="115.12" y2="54.9828" gradientUnits="userSpaceOnUse">
<stop stop-color="#F10806"/>
<stop offset="1" stop-color="#F10806"/>
</linearGradient>
<linearGradient id="paint2_linear_28_33" x1="148.196" y1="-6.68383e-07" x2="181.272" y2="54.9828" gradientUnits="userSpaceOnUse">
<stop stop-color="#F10806"/>
<stop offset="1" stop-color="#F10806"/>
</linearGradient>
<linearGradient id="paint3_linear_28_33" x1="216.924" y1="-6.68383e-07" x2="250" y2="54.9828" gradientUnits="userSpaceOnUse">
<stop stop-color="#F10806"/>
<stop offset="1" stop-color="#F10806"/>
</linearGradient>
</defs>
</svg>
