<svg width="44" height="60" viewBox="0 0 44 60" fill="none" xmlns="http://www.w3.org/2000/svg">
<g clip-path="url(#clip0_111_59)">
<mask id="mask0_111_59" style="mask-type:luminance" maskUnits="userSpaceOnUse" x="0" y="0" width="44" height="60">
<path d="M43.5651 0H0.435059V60H43.5651V0Z" fill="white"/>
</mask>
<g mask="url(#mask0_111_59)">
<path d="M33.2649 45.9001V51.1101H10.7349V45.9001C10.7349 44.9201 10.8649 43.9501 11.1149 43.0301H20.8549V30.0001C20.8549 27.5701 19.4349 25.3301 17.2449 24.3101C16.0449 23.7501 14.9649 22.9801 14.0549 22.0701H29.9549C29.0449 22.9801 27.9749 23.7401 26.7749 24.3101C24.5749 25.3401 23.1549 27.5701 23.1549 30.0001V43.0301H32.8949C33.1449 43.9501 33.2749 44.9101 33.2749 45.9001H33.2649Z" fill="url(#paint0_linear_111_59)"/>
<path d="M39.7851 53.8H38.7351V45.89C38.7351 39.42 34.9451 33.46 29.0851 30.72C28.8051 30.59 28.6151 30.3 28.6151 29.99C28.6151 29.68 28.7951 29.39 29.0851 29.26C34.9451 26.52 38.7351 20.57 38.7351 14.09V6.19H40.4651C42.1751 6.19 43.5651 4.81 43.5651 3.09C43.5651 1.37 42.1751 0 40.4651 0H3.53506C1.82506 0 0.435059 1.38 0.435059 3.09C0.435059 4.8 1.82506 6.19 3.53506 6.19H5.26506V14.09C5.26506 20.56 9.04506 26.52 14.9151 29.26C15.1951 29.39 15.3851 29.68 15.3851 29.99C15.3851 30.3 15.2051 30.59 14.9151 30.72C9.04506 33.46 5.26506 39.41 5.26506 45.89V53.8H4.21506C2.13506 53.8 0.435059 55.19 0.435059 56.9C0.435059 58.61 2.13506 60 4.21506 60H39.7851C41.8651 60 43.5651 58.61 43.5651 56.9C43.5651 55.19 41.8651 53.8 39.7851 53.8ZM8.05506 45.89C8.05506 40.29 11.3451 35.47 16.0951 33.26C17.3551 32.66 18.1651 31.39 18.1651 29.99C18.1651 28.59 17.3551 27.32 16.0951 26.73C11.3451 24.5 8.05506 19.68 8.05506 14.09V6.19H35.9451V14.09C35.9451 19.69 32.6551 24.51 27.9051 26.73C26.6451 27.32 25.8351 28.59 25.8351 29.99C25.8351 31.39 26.6451 32.66 27.9051 33.26C32.6551 35.48 35.9451 40.3 35.9451 45.89V53.79H8.05506V45.89Z" fill="url(#paint1_linear_111_59)"/>
</g>
</g>
<defs>
<linearGradient id="paint0_linear_111_59" x1="18.4649" y1="34.7301" x2="32.3749" y2="48.5101" gradientUnits="userSpaceOnUse">
<stop stop-color="white"/>
<stop offset="1" stop-color="white" stop-opacity="0"/>
</linearGradient>
<linearGradient id="paint1_linear_111_59" x1="20.9851" y1="29.07" x2="48.5551" y2="51.79" gradientUnits="userSpaceOnUse">
<stop stop-color="#F10806"/>
<stop offset="1" stop-color="#F10806" stop-opacity="0"/>
</linearGradient>
<clipPath id="clip0_111_59">
<rect width="43.13" height="60" fill="white" transform="translate(0.435059)"/>
</clipPath>
</defs>
</svg>
