<svg width="56" height="60" viewBox="0 0 56 60" fill="none" xmlns="http://www.w3.org/2000/svg">
<g clip-path="url(#clip0_111_67)">
<mask id="mask0_111_67" style="mask-type:luminance" maskUnits="userSpaceOnUse" x="0" y="0" width="56" height="60">
<path d="M55.115 0H0.88501V60H55.115V0Z" fill="white"/>
</mask>
<g mask="url(#mask0_111_67)">
<path d="M54.7149 43.1502L47.9249 52.1002L41.1349 43.1502C40.4749 42.2902 40.6449 41.0402 41.5149 40.3902C42.3749 39.7302 43.6249 39.9002 44.2749 40.7702L45.9449 42.9702V35.8402C45.9449 24.6502 37.1449 15.2602 25.9649 14.9402C14.1649 14.6102 4.48494 24.2802 4.82494 36.0802C5.13494 47.2602 14.5449 56.0602 25.7249 56.0602H33.8549C34.9449 56.0602 35.8249 56.9502 35.8249 58.0302C35.8249 59.1102 34.9349 60.0002 33.8549 60.0002H25.8149C12.2749 60.0002 0.804937 48.9102 0.884937 35.3602C0.964937 21.9602 11.8549 11.0702 25.2549 10.9902C38.8049 10.9102 49.8949 22.3802 49.8949 35.9302V42.9702L51.5649 40.7702C52.2249 39.9102 53.4649 39.7302 54.3249 40.3902C55.1849 41.0502 55.3649 42.2902 54.7049 43.1502H54.7149Z" fill="url(#paint0_linear_111_67)"/>
<path d="M24.7249 36.1301V26.2901C24.7249 25.2101 23.8449 24.3301 22.7649 24.3301C21.6849 24.3301 20.8049 25.2101 20.8049 26.2901V40.0401H34.5549C35.6349 40.0401 36.5149 39.1601 36.5149 38.0801C36.5149 37.0001 35.6349 36.1201 34.5549 36.1201H24.7149L24.7249 36.1301Z" fill="url(#paint1_linear_111_67)"/>
<path d="M7.37487 2.32006L11.7449 0.580061C15.9949 -1.10994 20.8049 0.97006 22.4949 5.22006L22.7649 5.89006L3.00486 13.7501L2.73487 13.0801C1.05487 8.83006 3.12487 4.01006 7.37487 2.32006Z" fill="url(#paint2_linear_111_67)"/>
<path d="M49.2449 13.7501L29.4849 5.90009L29.7549 5.23009C31.4449 0.98009 36.2649 -1.08991 40.5049 0.59009L44.8749 2.33009C49.1249 4.02009 51.1949 8.84009 49.5149 13.0801L49.2449 13.7501Z" fill="url(#paint3_linear_111_67)"/>
</g>
</g>
<defs>
<linearGradient id="paint0_linear_111_67" x1="24.9349" y1="34.8602" x2="44.9749" y2="64.6102" gradientUnits="userSpaceOnUse">
<stop stop-color="#F10806"/>
<stop offset="1" stop-color="#F10806" stop-opacity="0"/>
</linearGradient>
<linearGradient id="paint1_linear_111_67" x1="27.6449" y1="33.0801" x2="20.2849" y2="39.5901" gradientUnits="userSpaceOnUse">
<stop stop-color="white"/>
<stop offset="1" stop-color="white" stop-opacity="0"/>
</linearGradient>
<linearGradient id="paint2_linear_111_67" x1="2.15487" y1="6.88006" x2="22.7649" y2="6.88006" gradientUnits="userSpaceOnUse">
<stop stop-color="#F10806"/>
<stop offset="1" stop-color="#F10806" stop-opacity="0"/>
</linearGradient>
<linearGradient id="paint3_linear_111_67" x1="29.4849" y1="6.88009" x2="50.0949" y2="6.88009" gradientUnits="userSpaceOnUse">
<stop stop-color="#F10806" stop-opacity="0"/>
<stop offset="1" stop-color="#F10806"/>
</linearGradient>
<clipPath id="clip0_111_67">
<rect width="54.23" height="60.01" fill="white" transform="translate(0.88501)"/>
</clipPath>
</defs>
</svg>
