<svg width="65" height="60" viewBox="0 0 65 60" fill="none" xmlns="http://www.w3.org/2000/svg">
<g clip-path="url(#clip0_111_91)">
<mask id="mask0_111_91" style="mask-type:luminance" maskUnits="userSpaceOnUse" x="0" y="0" width="65" height="61">
<path d="M64.1501 0.0100098H0.840088V60.01H64.1501V0.0100098Z" fill="white"/>
</mask>
<g mask="url(#mask0_111_91)">
<path d="M62.6402 31.24H2.35018C1.80018 31.24 1.28018 30.94 1.02018 30.45C0.760183 29.97 0.780183 29.37 1.08018 28.91L6.88018 19.99L9.70018 7.36001C10.6802 3.03001 14.4402 0.0100098 18.8602 0.0100098H46.1402C50.5702 0.0100098 54.3202 3.03001 55.2902 7.35001L58.1102 19.98L63.9102 28.9C64.2102 29.36 64.2402 29.96 63.9702 30.44C63.7102 30.93 63.2002 31.23 62.6402 31.23V31.24ZM5.15018 28.21H59.8602L55.4302 21.4C55.3302 21.25 55.2602 21.08 55.2202 20.91L52.3402 8.01001C51.6902 5.08001 49.1402 3.03001 46.1402 3.03001H18.8702C15.8702 3.03001 13.3302 5.07001 12.6702 8.00001L9.79018 20.9C9.75018 21.07 9.68018 21.24 9.58018 21.39L5.15018 28.2V28.21Z" fill="url(#paint0_linear_111_91)"/>
<path d="M56.6903 22.0901H8.31029C7.48029 22.0901 6.80029 21.4101 6.80029 20.5801C6.80029 19.7501 7.48029 19.0701 8.31029 19.0701H56.6903C57.5203 19.0701 58.2003 19.7501 58.2003 20.5801C58.2003 21.4101 57.5203 22.0901 56.6903 22.0901Z" fill="url(#paint1_linear_111_91)"/>
<path d="M57.6701 48.49H7.32009C3.92009 48.49 1.09009 45.84 0.860088 42.45C0.840088 42.3 0.840088 42.15 0.840088 42V29.72C0.840088 28.89 1.52009 28.21 2.35009 28.21H62.6401C63.4701 28.21 64.1501 28.89 64.1501 29.72V42C64.1501 45.58 61.2501 48.49 57.6701 48.49ZM3.88009 42.26C4.01009 44.06 5.52009 45.47 7.32009 45.47H57.6701C59.5801 45.47 61.1301 43.92 61.1301 42.01V31.25H3.87009V42.13C3.87009 42.18 3.87009 42.23 3.89009 42.27L3.88009 42.26Z" fill="url(#paint2_linear_111_91)"/>
<path d="M9.42009 60.0101H5.88009C3.10009 60.0101 0.840088 57.7501 0.840088 54.9601V42.6801C0.840088 42.5401 0.840088 42.4101 0.860088 42.2601C0.910088 41.4701 1.57009 40.8201 2.37009 40.8201C3.17009 40.8201 3.83009 41.4301 3.88009 42.2201C3.99009 44.0401 5.51009 45.4601 7.32009 45.4601H12.9401C13.7701 45.4601 14.4501 46.1401 14.4501 46.9701V54.9601C14.4501 57.7401 12.1901 60.0101 9.41009 60.0101H9.42009ZM3.87009 47.4801V54.9601C3.87009 56.0701 4.77009 56.9801 5.88009 56.9801H9.42009C10.5301 56.9801 11.4301 56.0701 11.4301 54.9601V48.4801H7.32009C6.06009 48.4801 4.87009 48.1101 3.86009 47.4701L3.87009 47.4801Z" fill="url(#paint3_linear_111_91)"/>
<path d="M59.1203 60.0101H55.5803C52.8003 60.0101 50.5403 57.7501 50.5403 54.9601V46.9701C50.5403 46.1401 51.2203 45.4601 52.0503 45.4601H57.6703C59.4903 45.4601 61.0003 44.0401 61.1103 42.2201C61.1603 41.4301 61.8203 40.8101 62.6203 40.8101C63.4203 40.8101 64.0803 41.4301 64.1303 42.2301C64.1303 42.4001 64.1503 42.5401 64.1503 42.6801V54.9601C64.1503 57.7401 61.8903 60.0101 59.1103 60.0101H59.1203ZM53.5703 48.4901V54.9701C53.5703 56.0801 54.4703 56.9901 55.5803 56.9901H59.1203C60.2303 56.9901 61.1303 56.0801 61.1303 54.9701V47.4901C60.1203 48.1301 58.9403 48.5001 57.6703 48.5001H53.5603L53.5703 48.4901Z" fill="url(#paint4_linear_111_91)"/>
<path d="M18.2102 37.1599H8.68017C7.85017 37.1599 7.17017 36.4799 7.17017 35.6499C7.17017 34.8199 7.85017 34.1399 8.68017 34.1399H18.2102C19.0402 34.1399 19.7202 34.8199 19.7202 35.6499C19.7202 36.4799 19.0402 37.1599 18.2102 37.1599Z" fill="url(#paint5_linear_111_91)"/>
<path d="M56.3203 37.1599H46.7903C45.9603 37.1599 45.2803 36.4799 45.2803 35.6499C45.2803 34.8199 45.9603 34.1399 46.7903 34.1399H56.3203C57.1503 34.1399 57.8303 34.8199 57.8303 35.6499C57.8303 36.4799 57.1503 37.1599 56.3203 37.1599Z" fill="url(#paint6_linear_111_91)"/>
</g>
</g>
<defs>
<linearGradient id="paint0_linear_111_91" x1="26.4902" y1="16.19" x2="66.0702" y2="58.95" gradientUnits="userSpaceOnUse">
<stop stop-color="#F10806"/>
<stop offset="1" stop-color="#F10806" stop-opacity="0"/>
</linearGradient>
<linearGradient id="paint1_linear_111_91" x1="27.5403" y1="15.2201" x2="67.1103" y2="57.9801" gradientUnits="userSpaceOnUse">
<stop stop-color="#F10806"/>
<stop offset="1" stop-color="#F10806" stop-opacity="0"/>
</linearGradient>
<linearGradient id="paint2_linear_111_91" x1="19.4401" y1="22.72" x2="59.0101" y2="65.48" gradientUnits="userSpaceOnUse">
<stop stop-color="#F10806"/>
<stop offset="1" stop-color="#F10806" stop-opacity="0"/>
</linearGradient>
<linearGradient id="paint3_linear_111_91" x1="-1.33991" y1="41.9501" x2="38.2301" y2="84.7101" gradientUnits="userSpaceOnUse">
<stop stop-color="#F10806"/>
<stop offset="1" stop-color="#F10806" stop-opacity="0"/>
</linearGradient>
<linearGradient id="paint4_linear_111_91" x1="26.5903" y1="16.1001" x2="66.1603" y2="58.8701" gradientUnits="userSpaceOnUse">
<stop stop-color="#F10806"/>
<stop offset="1" stop-color="#F10806" stop-opacity="0"/>
</linearGradient>
<linearGradient id="paint5_linear_111_91" x1="9.76017" y1="31.6699" x2="49.3402" y2="74.4299" gradientUnits="userSpaceOnUse">
<stop stop-color="#F10806"/>
<stop offset="1" stop-color="#F10806" stop-opacity="0"/>
</linearGradient>
<linearGradient id="paint6_linear_111_91" x1="30.2903" y1="12.6699" x2="69.8703" y2="55.4399" gradientUnits="userSpaceOnUse">
<stop stop-color="#F10806"/>
<stop offset="1" stop-color="#F10806" stop-opacity="0"/>
</linearGradient>
<clipPath id="clip0_111_91">
<rect width="63.32" height="60" fill="white" transform="translate(0.840088 0.0100098)"/>
</clipPath>
</defs>
</svg>
