<svg width="63" height="60" viewBox="0 0 63 60" fill="none" xmlns="http://www.w3.org/2000/svg">
<g clip-path="url(#clip0_111_77)">
<mask id="mask0_111_77" style="mask-type:luminance" maskUnits="userSpaceOnUse" x="0" y="0" width="63" height="61">
<path d="M62.2398 0.0100098H0.779785V60.01H62.2398V0.0100098Z" fill="white"/>
</mask>
<g mask="url(#mask0_111_77)">
<path d="M24.63 43.58C31.12 37.01 37.49 30.52 42.33 25.59C42.53 25.38 42.65 25.33 42.92 25.41C44.46 25.86 46.1 26 47.76 25.82C51.84 25.38 55.32 23.04 57.33 19.38C59.34 15.73 59.45 11.52 57.64 7.83999C57.36 7.27999 57.08 6.98999 56.74 6.92999C56.41 6.86999 56.04 7.04999 55.6 7.49999L49.79 13.33C49.29 13.84 49.27 13.83 48.78 13.35C47.74 12.33 46.71 11.32 45.67 10.3C45.42 10.06 45.28 9.89999 45.28 9.79999C45.28 9.69999 45.41 9.53999 45.65 9.29999L47.94 6.99999C49.08 5.84999 50.23 4.69999 51.37 3.54999C51.75 3.16999 51.91 2.79999 51.84 2.45999C51.77 2.11999 51.48 1.83999 50.97 1.63999C49.48 1.03999 47.92 0.73999 46.33 0.73999H46.32C44.05 0.73999 41.82 1.35999 39.87 2.51999C35.36 5.20999 33.03 10.31 33.93 15.49C33.99 15.82 34.01 16.02 33.78 16.25C28.26 21.84 22.37 27.84 15.75 34.58C15.54 34.79 15.38 34.84 15.08 34.77C13.59 34.45 12.03 34.44 10.45 34.74C7.24999 35.34 4.50999 37.2 2.70999 39.95C0.919989 42.69 0.339989 45.94 1.06999 49.08C1.81999 52.3 3.78999 55.01 6.61999 56.69C8.48999 57.8 10.56 58.37 12.66 58.37C13.72 58.37 14.78 58.23 15.84 57.94C21.83 56.28 25.53 50.43 24.43 44.34C24.37 44.02 24.39 43.82 24.61 43.59H24.63V43.58ZM22.4 44.26C23.03 47.01 22.45 49.91 20.81 52.21C19.17 54.52 16.61 56.02 13.79 56.34C10.96 56.65 8.13999 55.73 6.02999 53.8C3.90999 51.87 2.72999 49.13 2.78999 46.28C2.84999 43.21 4.26999 40.39 6.68999 38.54C8.43999 37.2 10.54 36.51 12.69 36.51C13.51 36.51 14.34 36.61 15.16 36.82C15.83 36.99 16.32 36.86 16.81 36.34C23.03 29.99 29.34 23.58 35.54 17.28C36.01 16.8 36.14 16.34 36 15.68C35.35 12.69 35.91 9.69999 37.61 7.25999C39.3 4.81999 41.9 3.23999 44.93 2.80999C46.36 2.59999 47.74 2.69999 49.14 3.11999L47.83 4.40999C46.62 5.59999 45.45 6.74999 44.29 7.89999C43.64 8.54999 43.32 9.16999 43.32 9.79999C43.32 10.43 43.64 11.05 44.3 11.7C45.39 12.77 46.48 13.85 47.58 14.92C48.67 15.97 49.96 15.96 51.04 14.89C52.22 13.73 53.4 12.55 54.62 11.34L56.33 9.63999C56.38 9.84999 56.44 10.07 56.49 10.27C56.65 10.91 56.81 11.51 56.87 12.12C57.42 17.99 53.61 22.9 47.79 23.82C46.16 24.08 44.57 23.93 43.06 23.38C42.38 23.13 41.87 23.25 41.34 23.79C34.7 30.57 28.68 36.68 22.94 42.5C22.41 43.03 22.27 43.54 22.42 44.25L22.4 44.26Z" fill="url(#paint0_linear_111_77)"/>
<path d="M62.2299 51.44C62.2299 51.44 62.1999 51.39 62.1899 51.36C62.1799 51.33 62.1499 51.3 62.1499 51.28C61.8899 49.6 61.0999 48.13 59.8099 46.9C57.6899 44.89 55.5799 42.87 53.4599 40.86L49.4899 37.08C48.8899 36.51 48.5199 36.49 47.8599 36.97C47.1199 37.51 46.3499 37.5 45.7599 36.92C45.1799 36.37 45.1299 35.56 45.6199 34.82C46.0499 34.15 46.0199 33.79 45.4599 33.24C44.7999 32.6 44.1399 31.98 43.4699 31.34C42.7099 30.62 42.2899 30.63 41.5799 31.38C41.1999 31.77 40.8299 32.17 40.4499 32.57L40.0099 33.04L39.6699 32.69C39.3299 32.34 38.9999 32.01 38.6799 31.68C38.3199 31.32 38.0499 31.16 37.7599 31.16C37.4699 31.16 37.2199 31.31 36.8699 31.66C35.7499 32.79 34.6299 33.93 33.5199 35.06C33.1699 35.42 33.0299 35.69 33.0299 35.97C33.0299 36.25 33.1899 36.51 33.5099 36.83C33.8199 37.13 34.1499 37.41 34.4799 37.67C34.5699 37.75 34.6599 37.83 34.7599 37.9L34.1799 38.49C33.6999 38.97 33.2799 39.4 32.8599 39.84C32.3299 40.39 32.3299 40.89 32.8599 41.43C33.4999 42.08 34.1499 42.72 34.8099 43.36L35.0699 43.61C35.5299 44.06 36.0399 44.09 36.5799 43.67C37.3599 43.07 38.1599 43.07 38.7699 43.67C39.3799 44.27 39.3999 45.08 38.8099 45.86C38.3999 46.4 38.4299 46.91 38.8899 47.37C39.9799 48.44 41.0599 49.52 42.1499 50.6C44.5999 53.04 47.1399 55.57 49.6899 57.98C51.0799 59.3 52.8399 60 54.6999 60C54.9599 60 55.2299 59.99 55.4899 59.96C57.6899 59.73 59.6999 58.52 60.9799 56.65C61.6999 55.61 62.0199 54.44 62.2599 53.34V51.44H62.2299ZM58.7499 56.27C57.2399 57.89 54.6599 58.49 52.8699 57.68L59.8499 50.51C60.6999 52.12 60.2199 54.7 58.7499 56.28V56.27ZM40.9299 46.07C41.4599 44.63 41.1799 43.31 40.1099 42.26C39.4099 41.58 38.6099 41.23 37.7399 41.23C37.2899 41.23 36.8199 41.32 36.3299 41.51C35.9499 41.66 35.7799 41.62 35.5199 41.33C35.3499 41.14 35.1599 40.96 34.9799 40.79C34.9399 40.75 34.9099 40.73 34.8699 40.69L35.0699 40.48C35.5999 39.93 36.1099 39.4 36.6099 38.87C37.2099 38.24 37.2099 37.78 36.6099 37.19C36.2999 36.88 35.9699 36.59 35.6199 36.29C35.5099 36.2 35.4099 36.11 35.2999 36.01L37.8099 33.64L38.0799 33.92C38.3999 34.25 38.7399 34.6 39.0899 34.95C39.4399 35.3 39.6899 35.43 39.9599 35.43C40.2299 35.43 40.5099 35.27 40.8299 34.93C41.2199 34.53 41.5999 34.12 42.0099 33.69L42.4899 33.19C42.5499 33.25 42.6199 33.3 42.6799 33.36C42.9599 33.62 43.2199 33.86 43.4699 34.12C43.4999 34.16 43.5199 34.3 43.4799 34.4C42.9299 35.93 43.2199 37.25 44.3299 38.31C45.4199 39.36 46.7499 39.58 48.2799 38.97C48.3799 38.93 48.5599 38.97 48.5999 39C51.7499 41.99 54.8899 45 58.0399 48.01L58.7699 48.71C58.7699 48.71 58.7699 48.72 58.7799 48.74L51.0099 56.57L50.8999 56.48C50.7799 56.37 50.6899 56.3 50.5999 56.21L48.0599 53.71C45.7099 51.39 43.3599 49.06 40.9999 46.76C40.7599 46.53 40.7399 46.39 40.8699 46.04H40.8999L40.9299 46.07Z" fill="url(#paint1_linear_111_77)"/>
<path d="M3.86989 8.46C4.50989 9.56 5.16989 10.7 5.83989 11.81C6.04989 12.15 6.41989 12.46 6.80989 12.61C7.45989 12.85 8.11989 13.07 8.76989 13.28C9.29989 13.46 9.83989 13.63 10.3599 13.82C10.6899 13.94 11.0099 14.13 11.2299 14.36C13.9899 17.12 16.7299 19.89 19.4799 22.67L22.3199 25.54C22.6899 25.91 22.9699 26.07 23.2399 26.07C23.5099 26.07 23.7999 25.91 24.1599 25.54C25.2499 24.44 26.3299 23.33 27.4199 22.22C28.1299 21.5 28.1199 21.05 27.3999 20.32L19.2199 12.06C18.9099 11.75 18.5799 11.44 18.2499 11.15C17.5299 10.49 16.7799 9.81 16.2699 9C15.7599 8.2 15.4499 7.24 15.1499 6.31C15.0099 5.9 14.8799 5.46 14.7199 5.03C14.7199 4.99 14.6999 4.94 14.6599 4.89C14.5999 4.82 14.5499 4.74 14.4999 4.66C14.3599 4.47 14.2299 4.27 14.0299 4.13C12.2499 2.97 10.4399 1.81 8.67989 0.69L8.15989 0.36C8.02989 0.27 7.88989 0.22 7.72989 0.15C7.64989 0.11 7.56989 0.08 7.48989 0.04L7.39989 0L7.30989 0.06C7.23989 0.11 7.15989 0.15 7.08989 0.19C6.90989 0.29 6.72989 0.4 6.57989 0.55C5.92989 1.19 5.27989 1.84 4.62989 2.48C3.96989 3.14 3.30989 3.8 2.63989 4.45C2.14989 4.93 2.08989 5.44 2.44989 6.05C2.91989 6.85 3.38989 7.65 3.84989 8.45H3.85989L3.86989 8.46ZM12.9599 5.93C12.9599 5.93 12.9999 6.02 13.0099 6.1C13.6499 8.74 15.0799 10.99 17.5399 13.22C19.5199 15.02 21.4699 16.93 23.3599 18.79C24.1499 19.56 24.9299 20.34 25.7299 21.11L23.1199 23.54C23.0599 23.48 22.9899 23.42 22.9199 23.35L20.4499 20.86C17.7599 18.15 15.0699 15.43 12.3699 12.73C12.0999 12.46 11.7199 12.23 11.3199 12.08C10.6599 11.84 9.97989 11.61 9.31989 11.39C8.83989 11.23 8.35989 11.07 7.88989 10.9C7.64989 10.81 7.47989 10.71 7.40989 10.61C6.60989 9.26 5.81989 7.9 5.03989 6.56L4.47989 5.59L7.64989 2.39L8.40989 2.88C9.83989 3.8 11.2999 4.73 12.7499 5.67C12.8099 5.71 12.8599 5.8 12.9199 5.88L12.9599 5.93Z" fill="url(#paint2_linear_111_77)"/>
<path d="M50.93 50.1201L51.84 51.0301C52.12 51.3101 52.42 51.4501 52.69 51.4501C52.92 51.4501 53.14 51.3601 53.34 51.1701C53.53 50.9901 53.64 50.7501 53.64 50.5001C53.64 50.2101 53.51 49.9201 53.25 49.6501C50.27 46.6501 47.27 43.6601 44.27 40.6801C44.14 40.5501 43.99 40.4601 43.8 40.3601C43.71 40.3101 43.62 40.2501 43.52 40.1901L43.41 40.1201L43.31 40.2101C43.23 40.2701 43.15 40.3401 43.06 40.4001C42.83 40.5601 42.62 40.7101 42.59 40.9401C42.54 41.2801 42.64 41.8001 42.92 42.0801C45.58 44.7701 48.3 47.4901 50.93 50.1201Z" fill="url(#paint3_linear_111_77)"/>
<path d="M16.2802 41.6C16.0202 41.15 15.6702 40.93 15.1602 40.94C13.5902 40.95 11.9502 40.95 10.2802 40.94H10.2702C9.77021 40.94 9.42021 41.15 9.16021 41.59C8.21021 43.26 7.47021 44.55 6.75021 45.76C6.48021 46.22 6.47021 46.65 6.75021 47.11C7.50021 48.37 8.28021 49.74 9.16021 51.28C9.42021 51.75 9.79021 51.97 10.3402 51.94C10.9002 51.93 11.4602 51.93 12.0202 51.94H13.4302C13.9802 51.94 14.5502 51.94 15.1002 51.94H15.1602C15.6802 51.94 16.0502 51.71 16.3202 51.24C17.0702 49.9 17.8802 48.52 18.7002 47.12C18.9702 46.66 18.9802 46.22 18.7002 45.77C17.8602 44.34 17.0402 42.92 16.2902 41.59L16.2802 41.6ZM16.7002 46.48C16.7002 46.79 16.4702 47.13 16.2202 47.48C16.0602 47.71 15.8902 47.96 15.7702 48.23C15.0402 49.92 14.1702 50.4 12.7902 49.89L12.7302 49.87L12.6702 49.89C11.2602 50.4 10.3502 49.91 9.67021 48.26C9.56021 47.99 9.38021 47.73 9.22021 47.49C8.97021 47.13 8.74021 46.79 8.74021 46.46C8.74021 46.07 9.04021 45.64 9.33021 45.22C9.46021 45.04 9.59021 44.86 9.69021 44.67C9.79021 44.49 9.88021 44.3 9.97021 44.11C10.1802 43.67 10.4002 43.21 10.7302 43.02C11.0602 42.83 11.5702 42.87 12.0702 42.91C12.2802 42.92 12.5002 42.95 12.6902 42.94C12.9002 42.94 13.1202 42.93 13.3302 42.9C13.8402 42.86 14.3602 42.82 14.7102 43.01C15.0502 43.21 15.2802 43.68 15.5102 44.14C15.6002 44.33 15.6902 44.52 15.7902 44.7C15.8902 44.88 16.0102 45.05 16.1302 45.23C16.4102 45.65 16.7102 46.09 16.7102 46.49L16.7002 46.48Z" fill="#F10806"/>
<path d="M24.3898 35.94L27.1698 33.12C30.1798 30.07 33.1998 27.01 36.2098 23.95C36.3698 23.79 36.5098 23.59 36.6398 23.4C36.6998 23.31 36.7598 23.22 36.8198 23.14L36.8798 23.05L36.8298 22.95C36.7898 22.86 36.7398 22.79 36.7198 22.71C36.6398 22.55 36.5798 22.4 36.4598 22.28C36.2798 22.09 36.0698 21.99 35.8298 21.98H35.8198C35.5198 21.98 35.2098 22.14 34.9098 22.44C33.5198 23.84 32.1498 25.24 30.7698 26.64L22.2798 35.26C21.9598 35.59 21.7998 35.91 21.7998 36.2C21.7998 36.43 21.9098 36.65 22.1098 36.85C22.2698 37.01 22.4798 37.13 22.7498 37.13C23.0198 37.13 23.3298 37 23.6998 36.63C23.9298 36.4 24.1598 36.16 24.3998 35.93L24.3898 35.94Z" fill="url(#paint4_linear_111_77)"/>
</g>
</g>
<defs>
<linearGradient id="paint0_linear_111_77" x1="37.62" y1="22.02" x2="56.36" y2="3.28999" gradientUnits="userSpaceOnUse">
<stop stop-color="#F10806"/>
<stop offset="1" stop-color="#F10806" stop-opacity="0"/>
</linearGradient>
<linearGradient id="paint1_linear_111_77" x1="26.5699" y1="24.43" x2="2.2999" y2="0.160002" gradientUnits="userSpaceOnUse">
<stop stop-color="#F10806"/>
<stop offset="1" stop-color="#F10806" stop-opacity="0"/>
</linearGradient>
<linearGradient id="paint2_linear_111_77" x1="26.4599" y1="24.54" x2="2.19989" y2="0.270002" gradientUnits="userSpaceOnUse">
<stop stop-color="#F10806"/>
<stop offset="1" stop-color="#F10806" stop-opacity="0"/>
</linearGradient>
<linearGradient id="paint3_linear_111_77" x1="52.84" y1="50.6301" x2="43.42" y2="41.2101" gradientUnits="userSpaceOnUse">
<stop stop-color="white"/>
<stop offset="1" stop-color="white" stop-opacity="0"/>
</linearGradient>
<linearGradient id="paint4_linear_111_77" x1="23.3798" y1="35.47" x2="35.1998" y2="23.64" gradientUnits="userSpaceOnUse">
<stop stop-color="white"/>
<stop offset="1" stop-color="white" stop-opacity="0"/>
</linearGradient>
<clipPath id="clip0_111_77">
<rect width="61.48" height="60" fill="white" transform="translate(0.759766 0.0100098)"/>
</clipPath>
</defs>
</svg>
