<svg width="143" height="101" viewBox="0 0 143 101" fill="none" xmlns="http://www.w3.org/2000/svg">
<g clip-path="url(#clip0_713_869)">
<mask id="mask0_713_869" style="mask-type:luminance" maskUnits="userSpaceOnUse" x="0" y="0" width="143" height="100">
<path d="M142.4 0H0V99.06H142.4V0Z" fill="white"/>
</mask>
<g mask="url(#mask0_713_869)">
<path d="M135.88 17.8401C130.09 7.08007 124.17 2.61007 120.23 0.750074C118.13 -0.259926 115.8 -0.249926 113.86 0.780074L113.83 0.810074C113.43 0.960074 113 1.13007 112.55 1.33007C108.71 2.88007 102.91 5.22007 96.3402 4.76007C92.6802 4.50007 89.1502 5.21007 86.1402 6.82007L73.9302 13.3301L72.5002 14.3701L64.9902 19.7601C57.5502 14.5901 52.3802 12.9601 52.1302 12.8901C47.0802 11.5101 44.2902 8.82007 41.6002 6.20007C40.1602 4.81007 38.8002 3.49007 37.1902 2.50007L37.1502 2.47007C35.2102 0.970073 32.7002 0.410074 30.2902 0.910074C25.6802 1.83007 18.5102 4.91007 10.5302 14.3201C2.90022 23.3001 0.630218 30.5701 0.0602184 35.0801C-0.319782 37.9901 1.12022 40.9301 3.77022 42.6001L3.80022 42.6201C6.54022 44.3401 9.10022 46.2001 11.4102 48.1501C12.6902 49.2201 13.7902 50.1101 14.7602 50.9101C15.8302 51.7901 16.7802 52.5701 17.6702 53.3301C17.3502 54.0901 17.1402 54.9001 17.0602 55.7501C16.8602 57.8901 17.5002 59.9801 18.8702 61.6301C20.2302 63.2801 22.1602 64.3001 24.3102 64.5001C24.5702 64.5201 24.8302 64.5301 25.0802 64.5301C25.7802 64.5301 26.4702 64.4401 27.1302 64.2601C25.8102 67.0001 26.1102 70.3601 28.1602 72.8501C29.5202 74.4901 31.4402 75.5001 33.5802 75.7001C33.8302 75.7301 34.0902 75.7401 34.3402 75.7401C35.0302 75.7401 35.7102 75.6501 36.3702 75.4801C35.0902 78.2101 35.3902 81.5701 37.4402 84.0401C39.0302 85.9501 41.3302 86.9401 43.6402 86.9401C44.8202 86.9401 46.0102 86.6801 47.1102 86.1501C46.9702 86.6201 46.8702 87.1101 46.8202 87.6201C46.6302 89.6201 47.2302 91.5801 48.5102 93.1201C50.0002 94.9101 52.1502 95.8401 54.3202 95.8401C56.0102 95.8401 57.7102 95.2701 59.1102 94.1201L61.0602 92.5101L64.6602 95.3901C67.4502 97.6301 70.7002 99.0101 73.3402 99.0701H73.5402C75.2402 99.0701 76.7102 98.5501 77.8902 97.5601C79.9402 96.0201 81.0902 93.9701 81.1302 91.7701C81.1302 91.2401 81.0802 90.7001 80.9502 90.1801C82.4702 91.3401 84.3102 91.9901 86.1702 92.0401C88.7002 92.1101 91.0302 91.0401 92.5402 89.1401C93.8202 87.5401 94.4002 85.5101 94.1702 83.4001C94.1002 82.8501 93.9802 82.3001 93.8102 81.7701L93.9302 81.8501C97.8802 84.6101 102.85 84.2001 105.48 80.9001C106.83 79.2101 107.39 77.0501 107.06 74.8401C106.92 73.8701 106.6 72.9401 106.14 72.0801C106.82 72.2701 107.52 72.3701 108.23 72.3801H108.43C110.89 72.3801 113.13 71.3401 114.61 69.5001C116.36 67.3201 116.74 64.3501 115.69 61.6401C120.66 57.0601 124.75 53.6701 130.59 50.1701C132.92 48.7801 135.43 47.5401 138 46.5101L138.08 46.4801C140.63 45.4601 142.32 42.9101 142.37 40.0101C142.45 35.5601 141.39 28.0901 135.86 17.8601L135.88 17.8401ZM24.4402 62.9801C22.7002 62.8201 21.1302 61.9901 20.0202 60.6501C18.9102 59.3101 18.3902 57.6201 18.5502 55.8701C18.7102 54.1301 19.5402 52.5601 20.8802 51.4601L28.2702 45.3301L30.1202 44.2401C32.7202 43.2301 35.7402 44.0101 37.5102 46.1601C38.5302 47.3901 39.0602 48.9401 39.0102 50.5601C38.9402 52.4301 38.0802 54.1801 36.6502 55.3501L29.2102 61.5101C27.8802 62.6301 26.1902 63.1401 24.4402 62.9801ZM33.7102 74.1901C31.9802 74.0301 30.4202 73.2101 29.3102 71.8701C27.0302 69.1101 27.4202 65.0101 30.1702 62.7201L40.3402 54.2901C41.5102 53.3201 42.9502 52.8001 44.4702 52.8001C44.6702 52.8001 44.8802 52.8001 45.1002 52.8301C46.8302 52.9901 48.4002 53.8101 49.5002 55.1501C50.5102 56.3701 51.0502 57.9201 50.9902 59.5101C50.9202 61.3701 50.0802 63.1101 48.6602 64.2901L45.9902 66.5001C45.9902 66.5001 45.9702 66.5001 45.9602 66.5201L39.6002 71.7801L38.4702 72.7201C37.1402 73.8301 35.4502 74.3401 33.7202 74.1801H33.7102V74.1901ZM38.5802 83.0601C36.3002 80.3001 36.6802 76.1801 39.4202 73.8801L46.9402 67.6601C48.1502 66.6801 49.6002 66.2001 51.0602 66.2001C52.9402 66.2001 54.8002 67.0101 56.1002 68.5701C57.1102 69.7901 57.6502 71.3501 57.5902 72.9601C57.5202 74.8401 56.6702 76.5901 55.2402 77.7601L47.8002 83.9301C45.0302 86.2201 40.8902 85.8301 38.5902 83.0701L38.5802 83.0601ZM61.7102 89.9901L58.1402 92.9501C55.5802 95.0601 51.7702 94.7001 49.6502 92.1501C48.6302 90.9201 48.1502 89.3601 48.3102 87.7501C48.4602 86.1501 49.2202 84.7101 50.4602 83.6901L54.0202 80.7401C54.1602 80.6101 54.3202 80.4901 54.5002 80.3801C55.5402 79.6801 56.7102 79.3401 57.8802 79.3401C59.6102 79.3401 61.3202 80.0901 62.5002 81.5201C63.4402 82.6501 63.9302 84.0901 63.8702 85.5701C63.8102 87.3001 63.0202 88.9201 61.7102 90.0001V89.9901ZM113.45 68.5401C112.22 70.0701 110.33 70.9301 108.28 70.8601C106.67 70.8201 105.08 70.2301 103.8 69.2001L103.63 69.4101L103.38 69.7101L103.79 69.1901L88.7602 57.5101L87.8402 58.7001L102.85 70.3701C104.34 71.5701 105.31 73.2401 105.59 75.0401C105.85 76.8401 105.4 78.5801 104.31 79.9401C102.15 82.6501 98.1502 82.9201 94.8402 80.6201L90.8502 77.4201L90.4302 77.9401L90.8402 77.4201L78.1902 67.5801L77.2702 68.7701L89.9202 78.6001C90.7002 79.2301 91.3302 79.9801 91.8102 80.8201C92.2702 81.6601 92.5802 82.5801 92.6902 83.5301C92.8802 85.2301 92.4202 86.8801 91.3902 88.1601C90.1602 89.6901 88.2702 90.5401 86.2202 90.4801C84.6202 90.4501 83.0202 89.8501 81.7302 88.8101L78.3102 86.0701L77.9402 86.5301L78.3002 86.0701L67.5602 77.7301L66.6402 78.9201L77.3702 87.2601C78.8102 88.4101 79.6402 90.0001 79.6402 91.6301V91.7101C79.6102 93.4301 78.6802 95.0601 76.9702 96.3301C76.0002 97.1601 74.8002 97.5601 73.3902 97.5201C71.0702 97.4601 68.1602 96.2101 65.6102 94.1701L62.2502 91.4801L62.6802 91.1201C64.3302 89.7601 65.3202 87.7401 65.4002 85.5701C65.4602 83.7301 64.8502 81.9301 63.6802 80.5101C62.0402 78.5401 59.6202 77.6101 57.2402 77.8101C58.3602 76.4601 59.0302 74.7601 59.0902 72.9701C59.1702 70.9801 58.5102 69.0601 57.2602 67.5601C55.5202 65.4601 52.9102 64.4701 50.3702 64.6901C51.6602 63.3001 52.4202 61.4701 52.5002 59.5401V59.2601C52.5002 57.3901 51.8502 55.5901 50.6502 54.1501C49.3002 52.5101 47.3702 51.5001 45.2402 51.2901C43.4402 51.1201 41.6802 51.5501 40.1902 52.5101C40.3702 51.8801 40.4902 51.2301 40.5102 50.5601C40.5802 48.5801 39.9302 46.6501 38.6802 45.1501C36.4602 42.4401 32.7702 41.5101 29.5202 42.8201L27.4702 44.0201L19.9302 50.2501C19.3402 50.7401 18.8302 51.3101 18.4102 51.9201C17.5802 51.2101 16.7102 50.4901 15.7202 49.6901C14.7502 48.9001 13.6602 48.0101 12.3902 46.9401C10.0302 44.9501 7.41022 43.0501 4.56022 41.2601H4.53022C2.39022 39.9101 1.25022 37.6001 1.56022 35.2301C2.10022 30.9201 4.29022 23.9501 11.6802 15.2401C19.3702 6.20007 26.2002 3.26007 30.5802 2.38007C32.5702 1.97007 34.6202 2.43007 36.1502 3.61007L36.3002 3.74007C37.8002 4.65007 39.1302 5.94007 40.5402 7.29007C43.2402 9.90007 46.3102 12.8701 51.7002 14.3401C51.7502 14.3601 56.6802 15.9101 63.6802 20.7101L57.7202 25.0001L57.5302 25.1401L57.4502 25.3601C56.5102 27.9901 57.0402 31.0801 59.0402 34.8401L67.9202 51.4801C69.6002 54.6201 72.3202 56.3001 75.3202 56.3001C76.7602 56.3001 78.2502 55.9101 79.7302 55.1201C83.1802 53.2701 85.3302 48.4801 82.5502 43.2601L77.5702 33.9401L77.8802 32.1801C80.4302 34.2701 81.5102 35.0101 82.7202 35.8601C83.7702 36.5901 84.9602 37.4201 87.3502 39.2801L111.98 58.9901C112.91 59.7401 113.66 60.7001 114.14 61.7501C115.21 64.0701 114.95 66.6901 113.46 68.5601V68.5401H113.45ZM140.88 39.9701C140.84 42.2901 139.56 44.2501 137.57 45.0601L137.49 45.0901C134.82 46.1601 132.25 47.4301 129.85 48.8701C124.03 52.3501 119.93 55.7301 115.04 60.2101C114.49 59.3001 113.78 58.4801 112.94 57.8001L88.4102 38.1701C89.1302 38.2501 89.9402 38.3201 90.8502 38.3201C95.9302 38.3201 103.95 36.4901 114.4 28.3401L113.47 27.1501C96.3802 40.5001 86.0302 36.1401 85.3102 35.8101C84.6302 35.3201 84.0902 34.9401 83.5902 34.5901C82.3002 33.6901 81.1702 32.9101 78.1802 30.4401L79.2002 24.5801L77.7102 24.3301L75.9902 34.1601L81.2102 43.9401C83.8402 48.8701 81.3402 52.5101 79.0102 53.7601C75.9502 55.3901 71.7702 55.4601 69.2502 50.7301L60.3702 34.0901C58.6402 30.8401 58.1202 28.2101 58.8002 26.0501L65.4402 21.2701L65.4602 21.2901L71.7902 16.7101L73.3802 15.5801L74.7102 14.6201L86.8602 8.14007C89.6202 6.65007 92.8702 6.00007 96.2502 6.25007C103.17 6.72007 109.4 4.21007 113.12 2.71007C113.61 2.52007 114.07 2.33007 114.48 2.17007L114.66 2.09007L114.69 2.06007C116.19 1.30007 117.98 1.32007 119.61 2.10007C123.35 3.87007 128.98 8.15007 134.58 18.5501C139.95 28.4901 140.98 35.6801 140.9 39.9501L140.88 39.9701Z" fill="white"/>
</g>
</g>
<defs>
<clipPath id="clip0_713_869">
<rect width="142.4" height="99.07" fill="white"/>
</clipPath>
</defs>
</svg>
