<svg width="94" height="105" viewBox="0 0 94 105" fill="none" xmlns="http://www.w3.org/2000/svg">
<mask id="mask0_713_854" style="mask-type:luminance" maskUnits="userSpaceOnUse" x="0" y="0" width="94" height="105">
<path d="M93.85 0H0V104.15H93.85V0Z" fill="white"/>
</mask>
<g mask="url(#mask0_713_854)">
<path d="M64.23 31.53C64.13 31.49 64.03 31.47 63.92 31.47H29.94C29.83 31.47 29.73 31.49 29.63 31.53C11.91 38.57 0 63.77 0 82.89C0 90.25 1.71 95.46 5.21 98.84C10.05 103.5 17.87 104.15 25.61 104.15C28.66 104.15 31.86 104.03 35.23 103.91C38.99 103.78 42.88 103.64 46.92 103.64C50.08 103.64 53.12 103.7 56.06 103.76C69.89 104.03 81.84 104.27 88.42 97.82C92.07 94.24 93.84 88.84 93.84 81.32C93.84 63.04 82.52 38.8 64.22 31.53H64.23ZM87.23 96.59C81.16 102.54 69.55 102.31 56.1 102.05H55.9C53 101.98 50 101.93 46.93 101.93C42.85 101.93 38.95 102.07 35.18 102.2C31.86 102.32 28.65 102.43 25.63 102.43C17.37 102.43 10.52 101.58 6.4 97.61C3.25 94.57 1.72 89.75 1.72 82.89C1.72 60.21 16.3 38.91 29.92 33.26L30.1 33.18H63.75L63.94 33.26C79.49 39.67 92.14 61.23 92.14 81.32C92.14 88.36 90.53 93.35 87.23 96.59Z" fill="white"/>
<path d="M69.4402 0H24.0402C23.5602 0 23.1802 0.38 23.1802 0.86C23.1802 8.73 26.3102 20.23 31.5602 25.83C31.7202 26 31.9502 26.1 32.1802 26.1H61.2902C61.5202 26.1 61.7502 26 61.9102 25.83C67.1602 20.22 70.2902 8.73 70.2902 0.86C70.2902 0.38 69.9102 0 69.4402 0ZM68.5202 2.78C68.1202 9.3 65.6602 18.74 61.2202 24.03L60.9202 24.39H32.5502L32.2502 24.03C27.8102 18.74 25.3502 9.3 24.9502 2.78L24.8902 1.71H68.5802L68.5202 2.78Z" fill="white"/>
<path d="M50.2699 83.0301V88.1301H46.5299V83.0801C42.0699 82.8101 37.7399 81.3501 35.3799 79.3001L37.4299 74.7001C39.6599 76.5201 43.0799 77.8401 46.5399 78.1601V69.0501C41.4899 67.8201 36.0699 66.1801 36.0699 59.8501C36.0699 55.2101 39.4399 51.1501 46.5399 50.4701V45.3301H50.2799V50.3801C53.6499 50.5601 57.0599 51.5601 59.5199 53.1601L57.6499 57.7601C55.2399 56.3501 52.6899 55.5701 50.2699 55.3001V64.5001C55.3199 65.7301 60.8299 67.3201 60.8299 73.6501C60.8299 78.2901 57.4199 82.3001 50.2699 83.0301ZM46.5399 63.5501V55.4501C43.3099 55.9501 41.9399 57.5901 41.9399 59.5901C41.9399 61.7801 43.8999 62.7801 46.5399 63.5501ZM55.0099 74.0601C55.0099 71.8301 53.0099 70.7801 50.2799 70.0101V78.0701C53.5999 77.5701 55.0099 76.0201 55.0099 74.0601Z" fill="white"/>
</g>
</svg>
