<svg width="142" height="102" viewBox="0 0 142 102" fill="none" xmlns="http://www.w3.org/2000/svg">
<g clip-path="url(#clip0_713_836)">
<mask id="mask0_713_836" style="mask-type:luminance" maskUnits="userSpaceOnUse" x="11" y="9" width="121" height="80">
<path d="M131.91 9.54004H11V88.73H131.91V9.54004Z" fill="white"/>
</mask>
<g mask="url(#mask0_713_836)">
<path d="M71.2102 88.7301H49.0102C46.9802 88.7301 46.8902 88.7301 47.0102 86.6501C47.1202 84.7001 47.4202 82.7601 47.6802 80.8201C47.9102 79.1401 47.9402 79.1301 46.2502 79.1301H13.4902C13.1302 79.1301 12.7702 79.1101 12.4102 79.1301C11.2902 79.1901 10.9302 78.5901 11.0102 77.5601C11.3302 73.2401 11.9602 69.0001 13.4302 64.8801C15.0802 60.2501 17.5402 56.1401 20.7802 52.4701C21.5502 51.6001 22.2002 51.4501 23.2202 52.2001C29.3302 56.7201 36.0002 57.3101 43.0002 54.7301C44.9002 54.0301 46.6802 52.9901 48.4602 52.0101C49.2302 51.5801 49.7402 51.6301 50.3502 52.2401C52.6302 54.5401 54.4502 57.1401 55.7702 60.1001C56.1402 60.9301 56.4802 61.5001 57.6202 61.2901C58.1602 61.1901 58.8802 61.6701 59.4002 62.0501C62.8702 64.6001 66.7802 65.9501 71.0402 65.9201C75.8302 65.8901 80.2102 64.3201 84.2402 61.7301C84.6902 61.4401 85.4102 61.2401 85.8602 61.3901C86.7302 61.6901 87.0902 61.3901 87.4302 60.6701C88.8802 57.6201 90.7402 54.8401 93.0802 52.3801C93.8302 51.5901 94.4402 51.4801 95.3302 52.1501C102.07 57.2201 109.29 57.2201 116.77 54.0901C118.02 53.5701 119.23 52.9101 120.34 52.1401C121.39 51.4101 122.08 51.7401 122.82 52.5201C126.34 56.2301 128.74 60.6201 129.92 65.5401C130.82 69.2901 131.29 73.1501 131.82 76.9801C132.08 78.8501 131.73 79.1101 129.8 79.1101H96.4402C94.7502 79.1101 94.7502 79.1601 94.9602 80.7801C95.2202 82.8801 95.4302 84.9901 95.6002 87.0901C95.7102 88.4101 95.3602 88.7101 93.8902 88.7101H71.2102V88.7301ZM71.2802 87.6101H93.2402C93.9502 87.6101 94.5402 87.5301 94.4202 86.5701C94.1202 84.1501 93.9702 81.7101 93.5302 79.3201C92.4502 73.4001 90.2602 67.9701 86.2302 63.3801C85.5602 62.6201 85.0702 62.4001 84.1302 63.0001C82.9202 63.7701 81.6202 64.4101 80.2902 64.9501C73.0602 67.9001 66.0302 67.7901 59.3502 63.3601C57.8902 62.3901 57.8002 62.3801 56.6502 63.8001C51.4402 70.2201 48.7402 77.6201 48.1302 85.8201C48.0002 87.5001 48.1502 87.6101 49.8002 87.6101H71.2802ZM112.5 78.0101H129.3C130.14 78.0101 130.87 77.9601 130.72 76.8101C130.41 74.4001 130.22 71.9601 129.77 69.5701C128.67 63.7001 126.5 58.3001 122.47 53.7601C121.9 53.1201 121.48 52.7701 120.58 53.3101C119.18 54.1501 117.71 54.9201 116.2 55.5201C109.01 58.3501 102.06 58.1201 95.5002 53.7001C94.1802 52.8101 93.9802 52.7401 93.1002 54.0501C91.3202 56.6901 89.6702 59.4301 87.9602 62.1301C87.5402 62.7901 87.6102 63.3201 88.1202 63.9601C91.0602 67.6501 93.0002 71.8401 94.0302 76.4201C94.3202 77.7101 94.9202 78.0501 96.1802 78.0301C101.62 77.9701 107.06 78.0001 112.5 78.0001V78.0101ZM30.2502 78.0101C35.8102 78.0101 41.3602 78.0101 46.9202 78.0101C47.7802 78.0101 48.3302 77.8001 48.5902 76.8701C49.9002 72.0701 52.1202 67.7201 55.1802 63.7901C55.4802 63.4101 55.5902 62.6301 55.4202 62.1801C54.2602 59.1301 52.5902 56.3801 50.4502 53.9001C49.6802 53.0101 49.0502 52.9501 48.0102 53.5601C42.8602 56.5901 37.3502 58.0201 31.3602 57.0401C28.3002 56.5401 25.5802 55.2201 23.0502 53.4901C22.4202 53.0501 21.8702 52.8101 21.3302 53.6001C19.7602 55.9101 18.0102 58.1101 16.6602 60.5401C13.9902 65.3601 12.6302 70.6001 12.3202 76.1101C12.2102 78.0101 12.1902 78.0101 14.0602 78.0101H30.2502Z" fill="white"/>
<path d="M90.2303 37.0501C89.3303 47.7801 84.1603 54.7401 73.1903 56.5501C60.3403 56.7801 53.9203 49.8001 52.0903 37.2601C47.3403 44.2801 41.1303 47.8501 32.8803 46.8701C27.3403 46.2101 22.9903 43.3301 19.8303 38.7601C13.7303 29.9501 16.7003 17.3101 26.0603 12.1201C32.3103 8.65008 38.6203 8.67008 44.7903 12.2601C50.9603 15.8501 53.7103 21.6201 54.3003 28.6101H54.6403C54.9103 28.3101 55.2103 28.0201 55.4603 27.7001C57.7803 24.7401 60.4103 22.1601 63.9603 20.6801C72.0603 17.3201 81.0103 19.8001 86.3303 26.9001C86.9303 27.6901 87.5303 28.4801 88.4503 29.2601C88.6303 28.1601 88.8403 27.0701 88.9803 25.9601C90.0303 17.5401 96.7003 10.9701 105.12 9.79008C114.51 8.48008 124.55 14.9801 126.03 25.7101C127.74 38.1001 117.67 47.1501 107.76 47.0301C101.27 46.9601 96.2003 44.3801 92.3203 39.2701C91.7503 38.5201 91.1803 37.7701 90.6003 37.0201C90.4803 37.0401 90.3603 37.0501 90.2403 37.0701V37.0501H90.2303ZM71.1903 55.4501C80.4503 55.8901 88.8403 47.5201 88.8303 38.0301C88.8303 28.4301 81.0303 20.3501 71.2803 20.3101C61.5703 20.2701 53.6303 28.2101 53.6403 37.9401C53.6403 48.1701 62.2303 55.7501 71.1903 55.4501ZM35.3203 45.8501C44.4403 46.2301 52.8803 38.5301 52.9803 28.4501C53.0703 18.7101 45.0203 10.6401 35.2903 10.7301C25.1203 10.8201 17.8403 19.3101 17.7803 28.2401C17.7203 37.8001 25.9203 46.2101 35.3203 45.8501ZM107.36 45.8501C116.98 46.2801 124.94 37.8001 125.09 28.6701C125.24 19.5001 117.91 10.8101 107.53 10.7301C97.8603 10.6501 89.8203 18.7001 89.8903 28.3801C89.9603 38.5501 98.4103 46.1401 107.36 45.8501Z" fill="white"/>
</g>
</g>
<defs>
<clipPath id="clip0_713_836">
<rect width="120.91" height="79.19" fill="white" transform="translate(11 9.54004)"/>
</clipPath>
</defs>
</svg>
