<svg width="211" height="102" viewBox="0 0 211 102" fill="none" xmlns="http://www.w3.org/2000/svg">
<g clip-path="url(#clip0_713_823)">
<path d="M174.97 15.075H35.05C15.97 15.075 0.5 30.545 0.5 49.625C0.5 68.715 15.97 84.185 35.05 84.185H174.97C194.05 84.185 209.52 68.715 209.52 49.635C209.52 30.545 194.05 15.075 174.97 15.075Z" stroke="white" stroke-miterlimit="10"/>
<path d="M48.7598 28.9548L55.4798 42.5648L70.4998 44.7448L59.6298 55.3348L62.1998 70.2948L48.7598 63.2348L35.3298 70.2948L37.8998 55.3348L27.0298 44.7448L42.0498 42.5648L48.7598 28.9548Z" stroke="white" stroke-miterlimit="10"/>
<path d="M105.01 28.9548L111.73 42.5648L126.74 44.7448L115.88 55.3348L118.44 70.2948L105.01 63.2348L91.5798 70.2948L94.1398 55.3348L83.2798 44.7448L98.2898 42.5648L105.01 28.9548Z" stroke="white" stroke-miterlimit="10"/>
<path d="M161.26 28.9548L167.97 42.5648L182.99 44.7448L172.12 55.3348L174.69 70.2948L161.26 63.2348L147.82 70.2948L150.39 55.3348L139.52 44.7448L154.54 42.5648L161.26 28.9548Z" stroke="white" stroke-miterlimit="10"/>
</g>
<defs>
<clipPath id="clip0_713_823">
<rect width="210.02" height="70.11" fill="white" transform="translate(0 14.575)"/>
</clipPath>
</defs>
</svg>
