<svg width="308" height="229" viewBox="0 0 308 229" fill="none" xmlns="http://www.w3.org/2000/svg">
<g clip-path="url(#clip0_389_139)">
<path d="M16 0.5H292C300.56 0.5 307.5 7.43959 307.5 16V213C307.5 221.56 300.56 228.5 292 228.5H16C7.43959 228.5 0.5 221.56 0.5 213V16C0.5 7.43958 7.43959 0.5 16 0.5Z" fill="#373737" stroke="#7C7C7C"/>
<path d="M223.96 79.95H84.0402C64.9588 79.95 49.4902 95.4185 49.4902 114.5V114.51C49.4902 133.591 64.9588 149.06 84.0402 149.06H223.96C243.042 149.06 258.51 133.591 258.51 114.51V114.5C258.51 95.4185 243.042 79.95 223.96 79.95Z" fill="#282828" stroke="#7C7C7C" stroke-miterlimit="10"/>
<path d="M97.75 93.83L104.47 107.44L119.49 109.62L108.62 120.21L111.19 135.17L97.75 128.11L84.32 135.17L86.89 120.21L76.02 109.62L91.04 107.44L97.75 93.83Z" stroke="#7C7C7C" stroke-miterlimit="10"/>
<path d="M154 93.83L160.72 107.44L175.73 109.62L164.87 120.21L167.43 135.17L154 128.11L140.57 135.17L143.13 120.21L132.27 109.62L147.28 107.44L154 93.83Z" stroke="#7C7C7C" stroke-miterlimit="10"/>
<path d="M210.25 93.83L216.96 107.44L231.98 109.62L221.11 120.21L223.68 135.17L210.25 128.11L196.81 135.17L199.38 120.21L188.51 109.62L203.53 107.44L210.25 93.83Z" stroke="#7C7C7C" stroke-miterlimit="10"/>
</g>
<defs>
<clipPath id="clip0_389_139">
<rect width="308" height="229" rx="16" fill="white"/>
</clipPath>
</defs>
</svg>
