<svg width="308" height="229" viewBox="0 0 308 229" fill="none" xmlns="http://www.w3.org/2000/svg">
<g clip-path="url(#clip0_389_131)">
<path d="M16 0.5H292C300.56 0.5 307.5 7.43959 307.5 16V213C307.5 221.56 300.56 228.5 292 228.5H16C7.43959 228.5 0.5 221.56 0.5 213V16C0.5 7.43958 7.43959 0.5 16 0.5Z" fill="#373737" stroke="#7C7C7C"/>
<g clip-path="url(#clip1_389_131)">
<path d="M209.11 93.83C209.11 98.85 207.13 103.58 203.52 107.14C199.93 110.7 195.14 112.66 190.05 112.66C184.07 112.66 178.54 109.94 174.89 105.18L173.44 103.29L173.12 105.64C172.58 109.79 170.71 113.53 167.72 116.48C164.12 120.04 159.34 122 154.25 122C144.94 122 136.86 115.14 135.44 106.04L135.09 103.85L133.69 105.57C133.22 106.16 132.75 106.66 132.29 107.12C128.7 110.68 123.92 112.64 118.84 112.64C108.34 112.64 99.79 104.2 99.79 93.82C99.79 88.79 101.77 84.07 105.38 80.51C108.99 76.96 113.76 75 118.85 75C128.15 75 136.23 81.86 137.66 90.97L138.01 93.16L139.41 91.43C139.89 90.84 140.35 90.34 140.8 89.89C144.4 86.33 149.19 84.37 154.27 84.36C160.25 84.36 165.78 87.09 169.43 91.84L170.88 93.73L171.2 91.37C171.74 87.23 173.61 83.48 176.6 80.54C180.19 76.97 184.98 75.01 190.06 75.01C200.56 75.01 209.11 83.46 209.11 93.84V93.83Z" fill="#282828"/>
<path d="M214.48 144.13C214.46 144.71 213.97 145.17 213.36 145.17H178.08L178.25 146.25C178.83 149.89 178.79 152.63 178.78 153.13C178.76 153.71 178.27 154.17 177.66 154.17H130.9C130.59 154.17 130.31 154.07 130.09 153.86C129.88 153.65 129.77 153.37 129.77 153.09C129.81 150.81 130.04 148.58 130.47 146.26L130.67 145.16H95.5602C95.2602 145.16 94.9702 145.05 94.7602 144.85C94.5402 144.64 94.4302 144.37 94.4302 144.08C94.6802 127.2 104.69 118.71 105.12 118.36C105.53 118.02 106.14 118.01 106.57 118.34C118.77 127.83 131.9 118.44 132.03 118.34C132.46 118.02 133.07 118.04 133.48 118.4C135.98 120.58 138.06 123.36 139.66 126.66L140.02 127.41L140.85 127.16C141.21 127.05 141.61 127.12 141.9 127.35C154.07 136.82 166.82 127.75 167.35 127.35C167.68 127.11 168.12 127.06 168.49 127.22L169.35 127.57L169.76 126.78C172.67 121.29 176.01 118.47 176.16 118.35C176.57 118.01 177.18 118 177.61 118.33C189.81 127.82 202.94 118.43 203.07 118.33C203.5 118.01 204.11 118.03 204.52 118.39C214.9 127.47 214.5 143.43 214.48 144.11V144.13Z" fill="#282828"/>
<path d="M154.21 154.19C146.81 154.19 139.41 154.19 132.01 154.19C129.98 154.19 129.89 154.19 130.01 152.11C130.12 150.16 130.42 148.22 130.68 146.28C130.91 144.6 130.94 144.59 129.25 144.59C118.33 144.59 107.41 144.59 96.4902 144.59C96.1302 144.59 95.7702 144.57 95.4102 144.59C94.2902 144.65 93.9302 144.05 94.0102 143.02C94.3302 138.7 94.9602 134.46 96.4302 130.34C98.0802 125.71 100.54 121.6 103.78 117.93C104.55 117.06 105.2 116.91 106.22 117.66C112.33 122.18 119 122.77 126 120.19C127.9 119.49 129.68 118.45 131.46 117.47C132.23 117.04 132.74 117.09 133.35 117.7C135.63 120 137.45 122.6 138.77 125.56C139.14 126.39 139.48 126.96 140.62 126.75C141.16 126.65 141.88 127.13 142.4 127.51C145.87 130.06 149.78 131.41 154.04 131.38C158.83 131.35 163.21 129.78 167.24 127.19C167.69 126.9 168.41 126.7 168.86 126.85C169.73 127.15 170.09 126.85 170.43 126.13C171.88 123.08 173.74 120.3 176.08 117.84C176.83 117.05 177.44 116.94 178.33 117.61C185.07 122.68 192.29 122.68 199.77 119.55C201.02 119.03 202.23 118.37 203.34 117.6C204.39 116.87 205.08 117.2 205.82 117.98C209.34 121.69 211.74 126.08 212.92 131C213.82 134.75 214.29 138.61 214.82 142.44C215.08 144.31 214.73 144.57 212.8 144.57C201.68 144.57 190.56 144.57 179.44 144.57C177.75 144.57 177.75 144.62 177.96 146.24C178.22 148.34 178.43 150.45 178.6 152.55C178.71 153.87 178.36 154.17 176.89 154.17C169.33 154.17 161.77 154.17 154.21 154.17V154.19ZM154.28 153.07C158.12 153.07 161.96 153.07 165.8 153.07C169.28 153.07 172.76 153.07 176.24 153.07C176.95 153.07 177.54 152.99 177.42 152.03C177.12 149.61 176.97 147.17 176.53 144.78C175.45 138.86 173.26 133.43 169.23 128.84C168.56 128.08 168.07 127.86 167.13 128.46C165.92 129.23 164.62 129.87 163.29 130.41C156.06 133.36 149.03 133.25 142.35 128.82C140.89 127.85 140.8 127.84 139.65 129.26C134.44 135.68 131.74 143.08 131.13 151.28C131 152.96 131.15 153.07 132.8 153.07C139.96 153.07 147.12 153.07 154.28 153.07ZM195.5 143.47C201.1 143.47 206.7 143.47 212.3 143.47C213.14 143.47 213.87 143.42 213.72 142.27C213.41 139.86 213.22 137.42 212.77 135.03C211.67 129.16 209.5 123.76 205.47 119.22C204.9 118.58 204.48 118.23 203.58 118.77C202.18 119.61 200.71 120.38 199.2 120.98C192.01 123.81 185.06 123.58 178.5 119.16C177.18 118.27 176.98 118.2 176.1 119.51C174.32 122.15 172.67 124.89 170.96 127.59C170.54 128.25 170.61 128.78 171.12 129.42C174.06 133.11 176 137.3 177.03 141.88C177.32 143.17 177.92 143.51 179.18 143.49C184.62 143.43 190.06 143.46 195.5 143.46V143.47ZM113.25 143.47C118.81 143.47 124.36 143.46 129.92 143.48C130.78 143.48 131.33 143.27 131.59 142.34C132.9 137.54 135.12 133.19 138.18 129.26C138.48 128.88 138.59 128.1 138.42 127.65C137.26 124.6 135.59 121.85 133.45 119.37C132.68 118.48 132.05 118.42 131.01 119.03C125.86 122.06 120.35 123.49 114.36 122.51C111.3 122.01 108.58 120.69 106.05 118.96C105.42 118.52 104.87 118.28 104.33 119.07C102.76 121.38 101.01 123.58 99.6602 126.01C96.9902 130.83 95.6302 136.07 95.3202 141.58C95.2102 143.48 95.1902 143.48 97.0602 143.48C102.46 143.48 107.85 143.48 113.25 143.48V143.47Z" fill="#7D7D7D"/>
<path d="M173.23 102.51C172.33 113.24 167.16 120.2 156.19 122.01C143.34 122.24 136.92 115.26 135.09 102.72C130.34 109.74 124.13 113.31 115.88 112.33C110.34 111.67 105.99 108.79 102.83 104.22C96.7303 95.41 99.7003 82.77 109.06 77.58C115.31 74.11 121.62 74.13 127.79 77.72C133.96 81.31 136.71 87.08 137.3 94.07C137.41 94.07 137.53 94.07 137.64 94.07C137.91 93.77 138.21 93.48 138.46 93.16C140.78 90.2 143.41 87.62 146.96 86.14C155.06 82.78 164.01 85.26 169.33 92.36C169.93 93.15 170.53 93.94 171.45 94.72C171.63 93.62 171.84 92.53 171.98 91.42C173.03 83 179.7 76.43 188.12 75.25C197.51 73.94 207.55 80.44 209.03 91.17C210.74 103.56 200.67 112.61 190.76 112.49C184.27 112.42 179.2 109.84 175.32 104.73C174.75 103.98 174.18 103.23 173.6 102.48C173.48 102.5 173.36 102.51 173.24 102.53L173.23 102.51ZM154.19 120.91C163.45 121.35 171.84 112.98 171.83 103.49C171.82 93.89 164.03 85.81 154.28 85.77C144.57 85.73 136.63 93.67 136.64 103.4C136.65 113.63 145.23 121.21 154.19 120.91ZM118.32 111.31C127.44 111.69 135.88 103.99 135.98 93.91C136.07 84.17 128.02 76.1 118.29 76.19C108.12 76.28 100.84 84.77 100.78 93.7C100.72 103.26 108.92 111.67 118.32 111.31ZM190.36 111.31C199.98 111.74 207.94 103.26 208.09 94.13C208.24 84.96 200.91 76.27 190.53 76.19C180.86 76.11 172.82 84.16 172.89 93.84C172.96 104.01 181.41 111.6 190.36 111.31Z" fill="#7D7D7D"/>
</g>
</g>
<defs>
<clipPath id="clip0_389_131">
<rect width="308" height="229" rx="16" fill="white"/>
</clipPath>
<clipPath id="clip1_389_131">
<rect width="120.91" height="79.19" fill="white" transform="translate(94 75)"/>
</clipPath>
</defs>
</svg>
