<svg width="308" height="229" viewBox="0 0 308 229" fill="none" xmlns="http://www.w3.org/2000/svg">
<g clip-path="url(#clip0_385_100)">
<path d="M16 0.5H292C300.56 0.5 307.5 7.43959 307.5 16V213C307.5 221.56 300.56 228.5 292 228.5H16C7.43959 228.5 0.5 221.56 0.5 213V16C0.5 7.43958 7.43959 0.5 16 0.5Z" fill="#373737" stroke="#7C7C7C"/>
<g clip-path="url(#clip1_385_100)">
<path d="M200.85 143.32C200.85 150.84 199.08 156.24 195.43 159.82C188.85 166.27 176.9 166.03 163.07 165.76C160.13 165.7 157.09 165.64 153.93 165.64C149.89 165.64 146 165.78 142.24 165.91C138.87 166.03 135.67 166.15 132.62 166.15H132.61C124.87 166.15 117.05 165.5 112.21 160.84C108.71 157.46 107 152.25 107 144.89C107 125.77 118.91 100.57 136.63 93.53C136.73 93.49 136.83 93.47 136.94 93.47H170.92C171.03 93.47 171.13 93.49 171.23 93.53C189.53 100.8 200.85 125.04 200.85 143.32Z" fill="#282828"/>
<path d="M177.29 62.86C177.29 70.73 174.16 82.22 168.91 87.83C168.75 88 168.52 88.1 168.29 88.1H139.18C138.95 88.1 138.72 88 138.56 87.83C133.31 82.23 130.18 70.73 130.18 62.86C130.18 62.38 130.56 62 131.04 62H176.44C176.91 62 177.29 62.38 177.29 62.86Z" fill="#282828"/>
<path d="M171.23 93.53C171.13 93.49 171.03 93.47 170.92 93.47H136.94C136.83 93.47 136.73 93.49 136.63 93.53C118.91 100.57 107 125.77 107 144.89C107 152.25 108.71 157.46 112.21 160.84C117.05 165.5 124.87 166.15 132.61 166.15H132.62C135.67 166.15 138.87 166.03 142.24 165.91C146 165.78 149.89 165.64 153.93 165.64C157.09 165.64 160.13 165.7 163.07 165.76C176.9 166.03 188.85 166.27 195.43 159.82C199.08 156.24 200.85 150.84 200.85 143.32C200.85 125.04 189.53 100.8 171.23 93.53ZM194.23 158.59C188.16 164.54 176.55 164.31 163.1 164.05H162.9C160 163.98 157 163.93 153.93 163.93C149.85 163.93 145.95 164.07 142.18 164.2C138.86 164.32 135.65 164.43 132.63 164.43C124.37 164.43 117.52 163.58 113.4 159.61C110.25 156.57 108.72 151.75 108.72 144.89C108.72 122.21 123.3 100.91 136.92 95.26L137.1 95.18H170.75L170.94 95.26C186.49 101.67 199.14 123.23 199.14 143.32C199.14 150.36 197.53 155.35 194.23 158.59Z" fill="#7D7D7D"/>
<path d="M176.44 62H131.04C130.56 62 130.18 62.38 130.18 62.86C130.18 70.73 133.31 82.23 138.56 87.83C138.72 88 138.95 88.1 139.18 88.1H168.29C168.52 88.1 168.75 88 168.91 87.83C174.16 82.22 177.29 70.73 177.29 62.86C177.29 62.38 176.91 62 176.44 62ZM175.52 64.78C175.12 71.3 172.66 80.74 168.22 86.03L167.92 86.39H139.55L139.25 86.03C134.81 80.74 132.35 71.3 131.95 64.78L131.89 63.71H175.58L175.52 64.78Z" fill="#7D7D7D"/>
<path d="M157.27 145.03V150.13H153.53V145.08C149.07 144.81 144.74 143.35 142.38 141.3L144.43 136.7C146.66 138.52 150.08 139.84 153.54 140.16V131.05C148.49 129.82 143.07 128.18 143.07 121.85C143.07 117.21 146.44 113.15 153.54 112.47V107.33H157.28V112.38C160.65 112.56 164.06 113.56 166.52 115.16L164.65 119.76C162.24 118.35 159.69 117.57 157.27 117.3V126.5C162.32 127.73 167.83 129.32 167.83 135.65C167.83 140.29 164.42 144.3 157.27 145.03ZM153.54 125.55V117.45C150.31 117.95 148.94 119.59 148.94 121.59C148.94 123.78 150.9 124.78 153.54 125.55ZM162.01 136.06C162.01 133.83 160.01 132.78 157.28 132.01V140.07C160.6 139.57 162.01 138.02 162.01 136.06Z" fill="#7D7D7D"/>
</g>
</g>
<defs>
<clipPath id="clip0_385_100">
<rect width="308" height="229" rx="16" fill="white"/>
</clipPath>
<clipPath id="clip1_385_100">
<rect width="93.85" height="104.15" fill="white" transform="translate(107 62)"/>
</clipPath>
</defs>
</svg>
