<svg width="308" height="229" viewBox="0 0 308 229" fill="none" xmlns="http://www.w3.org/2000/svg">
<g clip-path="url(#clip0_389_123)">
<path d="M16 0.5H292C300.56 0.5 307.5 7.43959 307.5 16V213C307.5 221.56 300.56 228.5 292 228.5H16C7.43959 228.5 0.5 221.56 0.5 213V16C0.5 7.43958 7.43959 0.5 16 0.5Z" fill="#373737" stroke="#7C7C7C"/>
<g clip-path="url(#clip1_389_123)">
<path d="M218.88 82.8401C213.09 72.0801 207.17 67.6101 203.23 65.7501C201.13 64.7401 198.8 64.7501 196.86 65.7801L196.83 65.8101C196.43 65.9601 196 66.1301 195.55 66.3301C191.71 67.8801 185.91 70.2201 179.34 69.7601C175.68 69.5001 172.15 70.2101 169.14 71.8201L156.93 78.3301L155.5 79.3701L147.99 84.7601C140.55 79.5901 135.38 77.9601 135.13 77.8901C130.08 76.5101 127.29 73.8201 124.6 71.2001C123.16 69.8101 121.8 68.4901 120.19 67.5001L120.15 67.4701C118.21 65.9701 115.7 65.4101 113.29 65.9101C108.68 66.8301 101.51 69.9101 93.5302 79.3201C85.9002 88.3001 83.6302 95.5701 83.0602 100.08C82.6802 102.99 84.1202 105.93 86.7702 107.6L86.8002 107.62C89.5402 109.34 92.1002 111.2 94.4102 113.15C95.6902 114.22 96.7902 115.11 97.7602 115.91C98.8302 116.79 99.7802 117.57 100.67 118.33C100.35 119.09 100.14 119.9 100.06 120.75C99.8602 122.89 100.5 124.98 101.87 126.63C103.23 128.28 105.16 129.3 107.31 129.5C107.57 129.52 107.83 129.53 108.08 129.53C108.78 129.53 109.47 129.44 110.13 129.26C108.81 132 109.11 135.36 111.16 137.85C112.52 139.49 114.44 140.5 116.58 140.7C116.83 140.73 117.09 140.74 117.34 140.74C118.03 140.74 118.71 140.65 119.37 140.48C118.09 143.21 118.39 146.57 120.44 149.04C122.03 150.95 124.33 151.94 126.64 151.94C127.82 151.94 129.01 151.68 130.11 151.15C129.97 151.62 129.87 152.11 129.82 152.62C129.63 154.62 130.23 156.58 131.51 158.12C133 159.91 135.15 160.84 137.32 160.84C139.01 160.84 140.71 160.27 142.11 159.12L144.06 157.51L147.66 160.39C150.45 162.63 153.7 164.01 156.34 164.07H156.54C158.24 164.07 159.71 163.55 160.89 162.56C162.94 161.02 164.09 158.97 164.13 156.77C164.13 156.24 164.08 155.7 163.95 155.18C165.47 156.34 167.31 156.99 169.17 157.04C171.7 157.11 174.03 156.04 175.54 154.14C176.82 152.54 177.4 150.51 177.17 148.4C177.1 147.85 176.98 147.3 176.81 146.77L176.93 146.85C180.88 149.61 185.85 149.2 188.48 145.9C189.83 144.21 190.39 142.05 190.06 139.84C189.92 138.87 189.6 137.94 189.14 137.08C189.82 137.27 190.52 137.37 191.23 137.38H191.43C193.89 137.38 196.13 136.34 197.61 134.5C199.36 132.32 199.74 129.35 198.69 126.64C203.66 122.06 207.75 118.67 213.59 115.17C215.92 113.78 218.43 112.54 221 111.51L221.08 111.48C223.63 110.46 225.32 107.91 225.37 105.01C225.45 100.56 224.39 93.0901 218.86 82.8601L218.88 82.8401ZM107.44 127.98C105.7 127.82 104.13 126.99 103.02 125.65C101.91 124.31 101.39 122.62 101.55 120.87C101.71 119.13 102.54 117.56 103.88 116.46L111.27 110.33L113.12 109.24C115.72 108.23 118.74 109.01 120.51 111.16C121.53 112.39 122.06 113.94 122.01 115.56C121.94 117.43 121.08 119.18 119.65 120.35L112.21 126.51C110.88 127.63 109.19 128.14 107.44 127.98ZM116.71 139.19C114.98 139.03 113.42 138.21 112.31 136.87C110.03 134.11 110.42 130.01 113.17 127.72L123.34 119.29C124.51 118.32 125.95 117.8 127.47 117.8C127.67 117.8 127.88 117.8 128.1 117.83C129.83 117.99 131.4 118.81 132.5 120.15C133.51 121.37 134.05 122.92 133.99 124.51C133.92 126.37 133.08 128.11 131.66 129.29L128.99 131.5C128.99 131.5 128.97 131.5 128.96 131.52L122.6 136.78L121.47 137.72C120.14 138.83 118.45 139.34 116.72 139.18L116.71 139.19ZM121.58 148.06C119.3 145.3 119.68 141.18 122.42 138.88L129.94 132.66C131.15 131.68 132.6 131.2 134.06 131.2C135.94 131.2 137.8 132.01 139.1 133.57C140.11 134.79 140.65 136.35 140.59 137.96C140.52 139.84 139.67 141.59 138.24 142.76L130.8 148.93C128.03 151.22 123.89 150.83 121.59 148.07L121.58 148.06ZM144.71 154.99L141.14 157.95C138.58 160.06 134.77 159.7 132.65 157.15C131.63 155.92 131.15 154.36 131.31 152.75C131.46 151.15 132.22 149.71 133.46 148.69L137.02 145.74C137.16 145.61 137.32 145.49 137.5 145.38C138.54 144.68 139.71 144.34 140.88 144.34C142.61 144.34 144.32 145.09 145.5 146.52C146.44 147.65 146.93 149.09 146.87 150.57C146.81 152.3 146.02 153.92 144.71 155V154.99ZM196.45 133.54C195.22 135.07 193.33 135.93 191.28 135.86C189.67 135.82 188.08 135.23 186.8 134.2L186.63 134.41L186.38 134.71L186.79 134.19L171.76 122.51L170.84 123.7L185.85 135.37C187.34 136.57 188.31 138.24 188.59 140.04C188.85 141.84 188.4 143.58 187.31 144.94C185.15 147.65 181.15 147.92 177.84 145.62L173.85 142.42L173.43 142.94L173.84 142.42L161.19 132.58L160.27 133.77L172.92 143.6C173.7 144.23 174.33 144.98 174.81 145.82C175.27 146.66 175.58 147.58 175.69 148.53C175.88 150.23 175.42 151.88 174.39 153.16C173.16 154.69 171.27 155.54 169.22 155.48C167.62 155.45 166.02 154.85 164.73 153.81L161.31 151.07L160.94 151.53L161.3 151.07L150.56 142.73L149.64 143.92L160.37 152.26C161.81 153.41 162.64 155 162.64 156.63V156.71C162.61 158.43 161.68 160.06 159.97 161.33C159 162.16 157.8 162.56 156.39 162.52C154.07 162.46 151.16 161.21 148.61 159.17L145.25 156.48L145.68 156.12C147.33 154.76 148.32 152.74 148.4 150.57C148.46 148.73 147.85 146.93 146.68 145.51C145.04 143.54 142.62 142.61 140.24 142.81C141.36 141.46 142.03 139.76 142.09 137.97C142.17 135.98 141.51 134.06 140.26 132.56C138.52 130.46 135.91 129.47 133.37 129.69C134.66 128.3 135.42 126.47 135.5 124.54C135.5 124.45 135.5 124.35 135.5 124.26C135.5 122.39 134.85 120.59 133.65 119.15C132.3 117.51 130.37 116.5 128.24 116.29C126.44 116.12 124.68 116.55 123.19 117.51C123.37 116.88 123.49 116.23 123.51 115.56C123.58 113.58 122.93 111.65 121.68 110.15C119.46 107.44 115.77 106.51 112.52 107.82L110.47 109.02L102.93 115.25C102.34 115.74 101.83 116.31 101.41 116.92C100.58 116.21 99.7102 115.49 98.7202 114.69C97.7502 113.9 96.6602 113.01 95.3902 111.94C93.0302 109.95 90.4102 108.05 87.5602 106.26H87.5302C85.3902 104.91 84.2502 102.6 84.5602 100.23C85.1002 95.9201 87.2902 88.9501 94.6802 80.2401C102.37 71.2001 109.2 68.2601 113.58 67.3801C115.57 66.9701 117.62 67.4301 119.15 68.6101L119.3 68.7401C120.8 69.6501 122.13 70.9401 123.54 72.2901C126.24 74.9001 129.31 77.8701 134.7 79.3401C134.75 79.3601 139.68 80.9101 146.68 85.7101L140.72 90.0001L140.53 90.1401L140.45 90.3601C139.51 92.9901 140.04 96.0801 142.04 99.8401L150.92 116.48C152.6 119.62 155.32 121.3 158.32 121.3C159.76 121.3 161.25 120.91 162.73 120.12C166.18 118.27 168.33 113.48 165.55 108.26L160.57 98.9401L160.88 97.1801C163.43 99.2701 164.51 100.01 165.72 100.86C166.77 101.59 167.96 102.42 170.35 104.28L194.98 123.99C195.91 124.74 196.66 125.7 197.14 126.75C198.21 129.07 197.95 131.69 196.46 133.56L196.45 133.54ZM223.88 104.97C223.84 107.29 222.56 109.25 220.57 110.06L220.49 110.09C217.82 111.16 215.25 112.43 212.85 113.87C207.03 117.35 202.93 120.73 198.04 125.21C197.49 124.3 196.78 123.48 195.94 122.8L171.41 103.17C172.13 103.25 172.94 103.32 173.85 103.32C178.93 103.32 186.95 101.49 197.4 93.3401L196.47 92.1501C179.38 105.5 169.03 101.14 168.31 100.81C167.63 100.32 167.09 99.9401 166.59 99.5901C165.3 98.6901 164.17 97.9101 161.18 95.4401L162.2 89.5801L160.71 89.3301L158.99 99.1601L164.21 108.94C166.84 113.87 164.34 117.51 162.01 118.76C158.95 120.39 154.77 120.46 152.25 115.73L143.37 99.0901C141.64 95.8401 141.12 93.2101 141.8 91.0501L148.44 86.2701L148.46 86.2901L154.79 81.7101L156.38 80.5801L157.71 79.6201L169.86 73.1401C172.62 71.6501 175.87 71.0001 179.25 71.2501C186.17 71.7201 192.4 69.2101 196.12 67.7101C196.61 67.5201 197.07 67.3301 197.48 67.1701L197.66 67.0901L197.69 67.0601C199.19 66.3001 200.98 66.3201 202.61 67.1001C206.35 68.8701 211.98 73.1501 217.58 83.5501C222.95 93.4901 223.98 100.68 223.9 104.95L223.88 104.97Z" fill="#7D7D7D"/>
<path d="M122.01 115.55C121.94 117.42 121.08 119.17 119.65 120.34L112.21 126.5C110.88 127.62 109.19 128.13 107.44 127.97C105.7 127.81 104.13 126.98 103.02 125.64C101.91 124.3 101.39 122.61 101.55 120.86C101.71 119.12 102.54 117.55 103.88 116.45L111.27 110.32L113.12 109.23C115.72 108.22 118.74 109 120.51 111.15C121.53 112.38 122.06 113.93 122.01 115.55Z" fill="#282828"/>
<path d="M133.98 124.52C133.91 126.38 133.07 128.12 131.65 129.3L128.98 131.51C128.98 131.51 128.96 131.51 128.95 131.53L122.59 136.79L121.46 137.73C120.13 138.84 118.44 139.35 116.71 139.19C114.98 139.03 113.42 138.21 112.31 136.87C110.03 134.11 110.42 130.01 113.17 127.72L123.34 119.29C124.51 118.32 125.95 117.8 127.47 117.8C127.67 117.8 127.88 117.8 128.1 117.83C129.83 117.99 131.4 118.81 132.5 120.15C133.51 121.37 134.05 122.92 133.99 124.51L133.98 124.52Z" fill="#282828"/>
<path d="M140.58 137.95C140.51 139.83 139.66 141.58 138.23 142.75L130.79 148.92C128.02 151.21 123.88 150.82 121.58 148.06C119.3 145.3 119.68 141.18 122.42 138.88L129.94 132.66C131.15 131.68 132.6 131.2 134.06 131.2C135.94 131.2 137.8 132.01 139.1 133.57C140.11 134.79 140.65 136.35 140.59 137.96L140.58 137.95Z" fill="#282828"/>
<path d="M146.88 150.56C146.82 152.29 146.03 153.91 144.72 154.99L141.15 157.95C138.59 160.06 134.78 159.7 132.66 157.15C131.64 155.92 131.16 154.36 131.32 152.75C131.47 151.15 132.23 149.71 133.47 148.69L137.03 145.74C137.17 145.61 137.33 145.49 137.51 145.38C138.55 144.68 139.72 144.34 140.89 144.34C142.62 144.34 144.33 145.09 145.51 146.52C146.45 147.65 146.94 149.09 146.88 150.57V150.56Z" fill="#282828"/>
<path d="M196.45 133.54C195.22 135.07 193.33 135.93 191.28 135.86C189.67 135.82 188.08 135.23 186.8 134.2L186.63 134.41L186.38 134.71L186.79 134.19L171.76 122.51L170.84 123.7L185.85 135.37C187.34 136.57 188.31 138.24 188.59 140.04C188.85 141.84 188.4 143.58 187.31 144.94C185.15 147.65 181.15 147.92 177.84 145.62L173.85 142.42L173.43 142.94L173.84 142.42L161.19 132.58L160.27 133.77L172.92 143.6C173.7 144.23 174.33 144.98 174.81 145.82C175.27 146.66 175.58 147.58 175.69 148.53C175.88 150.23 175.42 151.88 174.39 153.16C173.16 154.69 171.27 155.54 169.22 155.48C167.62 155.45 166.02 154.85 164.73 153.81L161.31 151.07L160.94 151.53L161.3 151.07L150.56 142.73L149.64 143.92L160.37 152.26C161.81 153.41 162.64 155 162.64 156.63V156.71C162.61 158.43 161.68 160.06 159.97 161.33C159 162.16 157.8 162.56 156.39 162.52C154.07 162.46 151.16 161.21 148.61 159.17L145.25 156.48L145.68 156.12C147.33 154.76 148.32 152.74 148.4 150.57C148.46 148.73 147.85 146.93 146.68 145.51C145.04 143.54 142.62 142.61 140.24 142.81C141.36 141.46 142.03 139.76 142.09 137.97C142.17 135.98 141.51 134.06 140.26 132.56C138.52 130.46 135.91 129.47 133.37 129.69C134.66 128.3 135.42 126.47 135.5 124.54C135.5 124.45 135.5 124.35 135.5 124.26C135.5 122.39 134.85 120.59 133.65 119.15C132.3 117.51 130.37 116.5 128.24 116.29C126.44 116.12 124.68 116.55 123.19 117.51C123.37 116.88 123.49 116.23 123.51 115.56C123.58 113.58 122.93 111.65 121.68 110.15C119.46 107.44 115.77 106.51 112.52 107.82L110.47 109.02L102.93 115.25C102.34 115.74 101.83 116.31 101.41 116.92C100.58 116.21 99.71 115.49 98.72 114.69C97.75 113.9 96.66 113.01 95.39 111.94C93.03 109.95 90.41 108.05 87.56 106.26H87.53C85.39 104.91 84.25 102.6 84.56 100.23C85.1 95.9201 87.29 88.9501 94.68 80.2401C102.37 71.2001 109.2 68.2601 113.58 67.3801C115.57 66.9701 117.62 67.4301 119.15 68.6101L119.3 68.7401C120.8 69.6501 122.13 70.9401 123.54 72.2901C126.24 74.9001 129.31 77.8701 134.7 79.3401C134.75 79.3601 139.68 80.9101 146.68 85.7101L140.72 90.0001L140.53 90.1401L140.45 90.3601C139.51 92.9901 140.04 96.0801 142.04 99.8401L150.92 116.48C152.6 119.62 155.32 121.3 158.32 121.3C159.76 121.3 161.25 120.91 162.73 120.12C166.18 118.27 168.33 113.48 165.55 108.26L160.57 98.9401L160.88 97.1801C163.43 99.2701 164.51 100.01 165.72 100.86C166.77 101.59 167.96 102.42 170.35 104.28L194.98 123.99C195.91 124.74 196.66 125.7 197.14 126.75C198.21 129.07 197.95 131.69 196.46 133.56L196.45 133.54Z" fill="#282828"/>
<path d="M223.88 104.97C223.84 107.29 222.56 109.25 220.57 110.06L220.49 110.09C217.82 111.16 215.25 112.43 212.85 113.87C207.03 117.35 202.93 120.73 198.04 125.21C197.49 124.3 196.78 123.48 195.94 122.8L171.41 103.17C172.13 103.25 172.94 103.32 173.85 103.32C178.93 103.32 186.95 101.49 197.4 93.34L196.47 92.15C179.38 105.5 169.03 101.14 168.31 100.81C167.63 100.32 167.09 99.94 166.59 99.59C165.3 98.69 164.17 97.91 161.18 95.44L162.2 89.58L160.71 89.33L158.99 99.16L164.21 108.94C166.84 113.87 164.34 117.51 162.01 118.76C158.95 120.39 154.77 120.46 152.25 115.73L143.37 99.09C141.64 95.84 141.12 93.21 141.8 91.05L148.44 86.27L148.46 86.29L154.79 81.71L156.38 80.58L157.71 79.62L169.86 73.14C172.62 71.65 175.87 71 179.25 71.25C186.17 71.72 192.4 69.21 196.12 67.71C196.61 67.52 197.07 67.33 197.48 67.17L197.66 67.09L197.69 67.06C199.19 66.3 200.98 66.32 202.61 67.1C206.35 68.87 211.98 73.15 217.58 83.55C222.95 93.49 223.98 100.68 223.9 104.95L223.88 104.97Z" fill="#282828"/>
</g>
</g>
<defs>
<clipPath id="clip0_389_123">
<rect width="308" height="229" rx="16" fill="white"/>
</clipPath>
<clipPath id="clip1_389_123">
<rect width="142.4" height="99.06" fill="white" transform="translate(83 65)"/>
</clipPath>
</defs>
</svg>
